<?xml version="1.0" encoding="utf-8"?>
<!-- Generator: Adobe Illustrator 27.8.1, SVG Export Plug-In . SVG Version: 6.00 Build 0)  -->
<svg version="1.1" xmlns="http://www.w3.org/2000/svg" xmlns:xlink="http://www.w3.org/1999/xlink" x="0px" y="0px"
	 viewBox="0 0 666.65 209.65" enable-background="new 0 0 666.65 209.65" xml:space="preserve">
<g id="Calque_3">
	<path fill="#2A3473" d="M53.82,59.18c0.01,0,0.01-0.01,0.02-0.01c0.06-0.03,0.11-0.07,0.16-0.11c-0.01,0-0.01,0-0.02-0.01
		C53.92,59.09,53.87,59.13,53.82,59.18"/>
	<path fill="#2A3473" d="M61.91,56.47c-0.02,0.01-0.04,0.03-0.05,0.04C61.89,56.51,61.91,56.51,61.91,56.47"/>
	<rect fill="#FFFFFF" width="666.65" height="209.65"/>
</g>
<g id="Calque_2">
	<path fill="#2A3473" d="M145.04,488.16c0.01,0,0.01-0.01,0.02-0.01c0.06-0.03,0.11-0.07,0.16-0.11c-0.01,0-0.01,0-0.02-0.01
		C145.14,488.08,145.09,488.12,145.04,488.16"/>
	<g id="grille">
	</g>
	<g>
		<g>
			<g>
				<path fill="#274185" d="M257.24,89.34c0-6.78,5.27-11.69,14.82-13.3l14.55-2.41v-2.32c0-5.53-4.11-8.92-9.91-8.92
					c-4.91,0-8.75,2.23-11.33,5.89l-6.87-5.27c4.02-5.35,10.44-8.75,18.47-8.75c12.14,0,18.83,7.14,18.83,17.05v29.72h-9.19v-5.09
					c-3.21,3.93-8.84,6.43-14.37,6.43C263.31,102.37,257.24,97.28,257.24,89.34z M273.93,94.87c5.62,0,10-2.68,12.67-6.96v-7.76
					l-12.14,2.05c-5.62,0.98-7.94,3.39-7.94,6.78C266.52,92.46,269.29,94.87,273.93,94.87z"/>
				<path fill="#274185" d="M300.79,56.05h9.19v4.37c3.39-3.57,7.85-6.16,14.28-6.16c9.91,0,17.49,6.69,17.49,19.72v27.04h-9.28
					V74.34c0-7.14-3.93-11.42-10.35-11.42c-6.16,0-9.82,3.84-12.14,7.76v30.34h-9.19V56.05z"/>
			</g>
			<g>
				<path fill="#274185" d="M294.44,145.36l7.4,5.67c-4.21,5.67-10.97,9.32-19.47,9.32c-15.45,0-25.14-11.43-25.14-24.86
					c0-13.44,9.69-24.86,25.14-24.86c8.41,0,15.27,3.66,19.47,9.32l-7.4,5.67c-2.56-3.57-6.76-6.12-12.07-6.12
					c-8.87,0-15.27,6.95-15.27,16c0,9.14,6.4,16,15.36,16C287.68,151.49,291.88,148.93,294.44,145.36z"/>
				<path fill="#274185" d="M316.38,121.89h-9.99v-8.3h9.99v-11.25h9.28v11.25h16.1v8.3h-16.1v21.06c0,6.07,3.21,8.03,8.21,8.03
					c3.03,0,6.28-0.36,7.88-0.98v8.12c-2.14,0.89-5.83,1.34-9.31,1.34c-10.53,0-16.06-5.53-16.06-16.51V121.89z"/>
			</g>
			<path fill="#274185" d="M348,48.09v6.18h8.94V45.6c0-3.13-2.78-6.32-5.9-6.52h-9.28v8.63L348,48.09z"/>
			<path fill="#FFCB05" d="M348,166.76v-6.18h8.94v8.67c0,3.13-2.78,6.32-5.9,6.52h-9.28v-8.63L348,166.76z"/>
			<path fill="#5C72B7" d="M250.99,166.76v-6.18h-8.94v8.67c0,3.13,2.78,6.32,5.9,6.52h9.28v-8.63L250.99,166.76z"/>
			<path fill="#008473" d="M250.99,48.09v6.18h-8.94V45.6c0-3.13,2.78-6.32,5.9-6.52h9.28v8.63L250.99,48.09z"/>
		</g>
		<g>
			<path fill="#274185" d="M387.61,80.94c0-1.6,1.22-2.73,3.47-3.11l3.57-0.59v-0.74c0-1.47-1.05-2.31-2.57-2.31
				c-1.22,0-2.21,0.57-2.86,1.47l-1.35-1.03c0.93-1.26,2.42-2.04,4.27-2.04c2.69,0,4.29,1.58,4.29,3.91v7.11h-1.79v-1.35
				c-0.8,1.03-2.19,1.64-3.55,1.64C389.01,83.91,387.61,82.75,387.61,80.94z M391.39,82.44c1.41,0,2.57-0.67,3.26-1.81v-2.08
				l-3.13,0.53c-1.45,0.25-2.1,0.9-2.1,1.81C389.41,81.79,390.15,82.44,391.39,82.44z"/>
			<path fill="#274185" d="M404.17,82.86c-0.48-0.38-0.74-0.95-0.74-1.51c0-0.84,0.44-1.54,1.26-2.06
				c-0.93-0.69-1.47-1.77-1.47-2.94c0-2.04,1.6-3.76,4.12-3.76c0.78,0,1.47,0.17,2.04,0.44h3.93v1.56h-2.29
				c0.29,0.53,0.44,1.14,0.44,1.77c0,2.02-1.58,3.74-4.12,3.74c-0.53,0-1.03-0.08-1.47-0.21c-0.44,0.32-0.69,0.69-0.69,1.09
				c0,0.44,0.23,0.76,0.88,0.76h3.03c2.8,0,4.1,1.37,4.1,3.26c0,2.23-2.23,3.89-5.4,3.89c-3.13,0-5.19-1.22-5.19-3.34
				C402.6,84.46,403.12,83.59,404.17,82.86z M407.77,87.38c2.23,0,3.64-0.88,3.64-2.27c0-1.01-0.57-1.81-2.46-1.81h-3.43
				c-0.74,0.55-1.18,1.18-1.18,2.02C404.34,86.6,405.67,87.38,407.77,87.38z M409.79,76.34c0-1.3-0.88-2.35-2.42-2.35
				c-1.58,0-2.44,1.05-2.44,2.35c0,1.3,0.86,2.33,2.44,2.33C408.9,78.67,409.79,77.62,409.79,76.34z"/>
			<path fill="#274185" d="M423.71,84.04c-3.57,0-5.78-2.63-5.78-5.72c0-3.22,2.06-5.72,5.34-5.72c2.88,0,4.75,2.02,4.75,4.63
				c0,0.42-0.06,0.82-0.13,1.11h-8.14c0.06,2.54,1.68,4.08,3.95,4.08c1.37,0,2.52-0.63,3.22-1.58l1.32,1.03
				C427.26,83.19,425.68,84.04,423.71,84.04z M419.88,76.97h6.35c-0.06-1.56-1.14-2.86-3.01-2.86
				C421.48,74.11,420.26,75.14,419.88,76.97z"/>
			<path fill="#274185" d="M434.83,73.02h1.79v1.2c0.86-0.95,1.96-1.62,3.53-1.62c2.38,0,4.14,1.6,4.14,4.6v6.41h-1.79v-6.35
				c0-1.89-1.07-2.99-2.71-2.99c-1.54,0-2.5,0.88-3.18,2v7.34h-1.79V73.02z"/>
			<path fill="#274185" d="M459.58,80.8l1.41,1.07c-0.99,1.32-2.52,2.17-4.46,2.17c-3.51,0-5.76-2.63-5.76-5.72s2.25-5.72,5.76-5.72
				c1.91,0,3.47,0.86,4.46,2.17l-1.41,1.07c-0.65-0.93-1.72-1.56-3.05-1.56c-2.27,0-3.89,1.79-3.89,4.04c0,2.27,1.62,4.04,3.91,4.04
				C457.85,82.35,458.93,81.72,459.58,80.8z"/>
			<path fill="#274185" d="M471.69,84.04c-3.57,0-5.78-2.63-5.78-5.72c0-3.22,2.06-5.72,5.34-5.72c2.88,0,4.75,2.02,4.75,4.63
				c0,0.42-0.06,0.82-0.13,1.11h-8.14c0.06,2.54,1.68,4.08,3.95,4.08c1.37,0,2.52-0.63,3.22-1.58l1.32,1.03
				C475.24,83.19,473.66,84.04,471.69,84.04z M467.86,76.97h6.35c-0.06-1.56-1.14-2.86-3.01-2.86
				C469.46,74.11,468.24,75.14,467.86,76.97z"/>
			<path fill="#274185" d="M492.27,73.02h1.79v1.2c0.86-0.95,1.96-1.62,3.53-1.62c2.38,0,4.14,1.6,4.14,4.6v6.41h-1.79v-6.35
				c0-1.89-1.07-2.99-2.71-2.99c-1.54,0-2.5,0.88-3.17,2v7.34h-1.79V73.02z"/>
			<path fill="#274185" d="M508.5,80.94c0-1.6,1.22-2.73,3.47-3.11l3.57-0.59v-0.74c0-1.47-1.05-2.31-2.57-2.31
				c-1.22,0-2.21,0.57-2.86,1.47l-1.35-1.03c0.93-1.26,2.42-2.04,4.27-2.04c2.69,0,4.29,1.58,4.29,3.91v7.11h-1.79v-1.35
				c-0.8,1.03-2.19,1.64-3.55,1.64C509.91,83.91,508.5,82.75,508.5,80.94z M512.29,82.44c1.41,0,2.57-0.67,3.26-1.81v-2.08
				l-3.13,0.53c-1.45,0.25-2.1,0.9-2.1,1.81C510.31,81.79,511.05,82.44,512.29,82.44z"/>
			<path fill="#274185" d="M525.32,74.64h-2v-1.62h2v-2.65h1.81v2.65h3.68v1.62h-3.68v5.43c0,1.66,0.84,2.12,2.12,2.12
				c0.69,0,1.18-0.08,1.58-0.25v1.6c-0.5,0.21-1.07,0.29-1.83,0.29c-2.35,0-3.68-1.18-3.68-3.76V74.64z"/>
			<path fill="#274185" d="M536.97,69c0-0.67,0.57-1.24,1.26-1.24c0.69,0,1.24,0.57,1.24,1.24c0,0.69-0.55,1.26-1.24,1.26
				C537.54,70.26,536.97,69.69,536.97,69z M537.33,73.02h1.79v10.6h-1.79V73.02z"/>
			<path fill="#274185" d="M557.26,78.32c0,3.09-2.33,5.72-5.74,5.72c-3.43,0-5.74-2.63-5.74-5.72s2.31-5.72,5.74-5.72
				C554.93,72.6,557.26,75.23,557.26,78.32z M555.37,78.32c0-2.21-1.62-4.04-3.83-4.04c-2.27,0-3.89,1.83-3.89,4.04
				s1.62,4.04,3.89,4.04C553.75,82.35,555.37,80.5,555.37,78.32z"/>
			<path fill="#274185" d="M563.93,73.02h1.79v1.2c0.86-0.95,1.96-1.62,3.53-1.62c2.38,0,4.14,1.6,4.14,4.6v6.41h-1.79v-6.35
				c0-1.89-1.07-2.99-2.71-2.99c-1.54,0-2.5,0.88-3.17,2v7.34h-1.79V73.02z"/>
			<path fill="#274185" d="M580.16,80.94c0-1.6,1.22-2.73,3.47-3.11l3.57-0.59v-0.74c0-1.47-1.05-2.31-2.57-2.31
				c-1.22,0-2.21,0.57-2.86,1.47l-1.35-1.03c0.93-1.26,2.42-2.04,4.27-2.04c2.69,0,4.29,1.58,4.29,3.91v7.11h-1.79v-1.35
				c-0.8,1.03-2.19,1.64-3.55,1.64C581.57,83.91,580.16,82.75,580.16,80.94z M583.94,82.44c1.41,0,2.57-0.67,3.26-1.81v-2.08
				l-3.13,0.53c-1.45,0.25-2.1,0.9-2.1,1.81C581.97,81.79,582.7,82.44,583.94,82.44z"/>
			<path fill="#274185" d="M596.37,67.84h1.79v15.77h-1.79V67.84z"/>
			<path fill="#274185" d="M610.6,84.04c-3.57,0-5.78-2.63-5.78-5.72c0-3.22,2.06-5.72,5.34-5.72c2.88,0,4.75,2.02,4.75,4.63
				c0,0.42-0.06,0.82-0.13,1.11h-8.14c0.06,2.54,1.68,4.08,3.95,4.08c1.37,0,2.52-0.63,3.22-1.58l1.32,1.03
				C614.16,83.19,612.58,84.04,610.6,84.04z M606.78,76.97h6.35c-0.06-1.56-1.14-2.86-3.01-2.86
				C608.37,74.11,607.16,75.14,606.78,76.97z"/>
			<path fill="#274185" d="M392.76,98.88c1.58,0,2.82,0.61,3.76,1.68v-6.43h1.79v15.77h-1.79v-1.26c-0.95,1.07-2.19,1.68-3.76,1.68
				c-3.32,0-5.45-2.63-5.45-5.72C387.31,101.51,389.44,98.88,392.76,98.88z M392.97,108.64c1.47,0,2.78-0.72,3.55-1.96v-4.16
				c-0.82-1.26-2.1-1.96-3.55-1.96c-2.25,0-3.76,1.79-3.76,4.04C389.2,106.85,390.72,108.64,392.97,108.64z"/>
			<path fill="#274185" d="M410.73,110.32c-3.57,0-5.78-2.63-5.78-5.72c0-3.22,2.06-5.72,5.34-5.72c2.88,0,4.75,2.02,4.75,4.63
				c0,0.42-0.06,0.82-0.13,1.11h-8.14c0.06,2.54,1.68,4.08,3.95,4.08c1.37,0,2.52-0.63,3.22-1.58l1.32,1.03
				C414.29,109.48,412.71,110.32,410.73,110.32z M406.91,103.25h6.35c-0.06-1.56-1.14-2.86-3.01-2.86
				C408.51,100.39,407.29,101.42,406.91,103.25z"/>
			<path fill="#274185" d="M431.32,94.13h1.79v15.77h-1.79V94.13z"/>
			<path fill="#274185" d="M440.06,107.23c0-1.6,1.22-2.73,3.47-3.11l3.57-0.59v-0.74c0-1.47-1.05-2.31-2.56-2.31
				c-1.22,0-2.21,0.57-2.86,1.47l-1.35-1.03c0.93-1.26,2.42-2.04,4.27-2.04c2.69,0,4.29,1.58,4.29,3.91v7.11h-1.79v-1.35
				c-0.8,1.03-2.19,1.64-3.55,1.64C441.47,110.19,440.06,109.03,440.06,107.23z M443.85,108.72c1.41,0,2.56-0.67,3.26-1.81v-2.08
				l-3.13,0.53c-1.45,0.25-2.1,0.9-2.1,1.81C441.87,108.07,442.61,108.72,443.85,108.72z"/>
			<path fill="#274185" d="M473.64,107.08l1.41,1.07c-0.99,1.32-2.52,2.17-4.46,2.17c-3.51,0-5.76-2.63-5.76-5.72
				c0-3.09,2.25-5.72,5.76-5.72c1.91,0,3.47,0.86,4.46,2.17l-1.41,1.07c-0.65-0.93-1.72-1.56-3.05-1.56c-2.27,0-3.89,1.79-3.89,4.04
				c0,2.27,1.62,4.04,3.91,4.04C471.92,108.64,472.99,108,473.64,107.08z"/>
			<path fill="#274185" d="M491.45,104.6c0,3.09-2.33,5.72-5.74,5.72c-3.43,0-5.74-2.63-5.74-5.72c0-3.09,2.31-5.72,5.74-5.72
				C489.12,98.88,491.45,101.51,491.45,104.6z M489.56,104.6c0-2.21-1.62-4.04-3.83-4.04c-2.27,0-3.89,1.83-3.89,4.04
				c0,2.21,1.62,4.04,3.89,4.04C487.94,108.64,489.56,106.79,489.56,104.6z"/>
			<path fill="#274185" d="M498.12,94.13h1.79v6.37c0.86-0.95,1.96-1.62,3.53-1.62c2.38,0,4.14,1.6,4.14,4.6v6.41h-1.79v-6.35
				c0-1.89-1.05-2.99-2.71-2.99c-1.56,0-2.5,0.9-3.18,2v7.34h-1.79V94.13z"/>
			<path fill="#274185" d="M519.84,110.32c-3.57,0-5.78-2.63-5.78-5.72c0-3.22,2.06-5.72,5.34-5.72c2.88,0,4.75,2.02,4.75,4.63
				c0,0.42-0.06,0.82-0.13,1.11h-8.14c0.06,2.54,1.68,4.08,3.95,4.08c1.37,0,2.52-0.63,3.22-1.58l1.32,1.03
				C523.39,109.48,521.81,110.32,519.84,110.32z M516.01,103.25h6.35c-0.06-1.56-1.14-2.86-3.01-2.86
				C517.61,100.39,516.39,101.42,516.01,103.25z M518.6,97.62l2.19-3.49h2.02l-2.46,3.49H518.6z"/>
			<path fill="#274185" d="M531,107.37c0.74,0.93,1.62,1.45,2.69,1.45c1.18,0,1.85-0.72,1.85-1.64c0-2.38-5.3-1.54-5.3-5.28
				c0-1.66,1.41-3.03,3.45-3.03c1.51,0,2.82,0.72,3.55,1.75l-1.24,1.05c-0.57-0.8-1.37-1.3-2.29-1.3c-1.14,0-1.75,0.67-1.75,1.49
				c0,2.38,5.32,1.62,5.32,5.24c-0.02,1.98-1.6,3.22-3.57,3.22c-1.68,0-3.01-0.67-3.97-1.87L531,107.37z"/>
			<path fill="#274185" d="M543.62,95.28c0-0.67,0.57-1.24,1.26-1.24c0.69,0,1.24,0.57,1.24,1.24c0,0.69-0.55,1.26-1.24,1.26
				C544.18,96.54,543.62,95.98,543.62,95.28z M543.97,99.3h1.79v10.6h-1.79V99.3z"/>
			<path fill="#274185" d="M563.91,104.6c0,3.09-2.33,5.72-5.74,5.72c-3.43,0-5.74-2.63-5.74-5.72c0-3.09,2.31-5.72,5.74-5.72
				C561.57,98.88,563.91,101.51,563.91,104.6z M562.01,104.6c0-2.21-1.62-4.04-3.83-4.04c-2.27,0-3.89,1.83-3.89,4.04
				c0,2.21,1.62,4.04,3.89,4.04C560.39,108.64,562.01,106.79,562.01,104.6z"/>
			<path fill="#274185" d="M570.57,99.3h1.79v1.2c0.86-0.95,1.96-1.62,3.53-1.62c2.38,0,4.14,1.6,4.14,4.6v6.41h-1.79v-6.35
				c0-1.89-1.07-2.99-2.71-2.99c-1.54,0-2.5,0.88-3.17,2v7.34h-1.79V99.3z"/>
			<path fill="#274185" d="M392.76,125.16c1.58,0,2.82,0.61,3.76,1.68v-6.43h1.79v15.77h-1.79v-1.26c-0.95,1.07-2.19,1.68-3.76,1.68
				c-3.32,0-5.45-2.63-5.45-5.72C387.31,127.79,389.44,125.16,392.76,125.16z M392.97,134.92c1.47,0,2.78-0.71,3.55-1.96v-4.16
				c-0.82-1.26-2.1-1.96-3.55-1.96c-2.25,0-3.76,1.79-3.76,4.04C389.2,133.13,390.72,134.92,392.97,134.92z"/>
			<path fill="#274185" d="M410.73,136.6c-3.57,0-5.78-2.63-5.78-5.72c0-3.22,2.06-5.72,5.34-5.72c2.88,0,4.75,2.02,4.75,4.63
				c0,0.42-0.06,0.82-0.13,1.11h-8.14c0.06,2.54,1.68,4.08,3.95,4.08c1.37,0,2.52-0.63,3.22-1.58l1.32,1.03
				C414.29,135.76,412.71,136.6,410.73,136.6z M406.91,129.53h6.35c-0.06-1.56-1.14-2.86-3.01-2.86
				C408.51,126.68,407.29,127.71,406.91,129.53z"/>
			<path fill="#274185" d="M421.9,133.66c0.74,0.93,1.62,1.45,2.69,1.45c1.18,0,1.85-0.71,1.85-1.64c0-2.38-5.3-1.54-5.3-5.28
				c0-1.66,1.41-3.03,3.45-3.03c1.51,0,2.82,0.72,3.55,1.75l-1.24,1.05c-0.57-0.8-1.37-1.3-2.29-1.3c-1.14,0-1.75,0.67-1.75,1.49
				c0,2.38,5.32,1.62,5.32,5.24c-0.02,1.98-1.6,3.22-3.57,3.22c-1.68,0-3.01-0.67-3.97-1.87L421.9,133.66z"/>
			<path fill="#274185" d="M444.94,127.2h-2v-1.62h2v-2.65h1.81v2.65h3.68v1.62h-3.68v5.43c0,1.66,0.84,2.12,2.12,2.12
				c0.69,0,1.18-0.08,1.58-0.25v1.6c-0.5,0.21-1.07,0.29-1.83,0.29c-2.35,0-3.68-1.18-3.68-3.76V127.2z"/>
			<path fill="#274185" d="M461.62,136.6c-3.57,0-5.78-2.63-5.78-5.72c0-3.22,2.06-5.72,5.34-5.72c2.88,0,4.75,2.02,4.75,4.63
				c0,0.42-0.06,0.82-0.13,1.11h-8.14c0.06,2.54,1.68,4.08,3.95,4.08c1.37,0,2.52-0.63,3.22-1.58l1.32,1.03
				C465.17,135.76,463.59,136.6,461.62,136.6z M457.79,129.53h6.35c-0.06-1.56-1.14-2.86-3.01-2.86
				C459.39,126.68,458.17,127.71,457.79,129.53z"/>
			<path fill="#274185" d="M472.74,125.58h1.79v1.32c0.78-0.92,1.75-1.53,3.09-1.53c0.34,0,0.65,0.04,0.9,0.13v1.75
				c-0.32-0.08-0.63-0.13-1.05-0.13c-1.39,0-2.29,0.71-2.94,1.79v7.28h-1.79V125.58z"/>
			<path fill="#274185" d="M484.87,125.58h1.79v1.32c0.78-0.92,1.75-1.53,3.09-1.53c0.34,0,0.65,0.04,0.9,0.13v1.75
				c-0.32-0.08-0.63-0.13-1.05-0.13c-1.39,0-2.29,0.71-2.94,1.79v7.28h-1.79V125.58z"/>
			<path fill="#274185" d="M496.64,121.57c0-0.67,0.57-1.24,1.26-1.24s1.24,0.57,1.24,1.24c0,0.69-0.55,1.26-1.24,1.26
				S496.64,122.26,496.64,121.57z M497,125.58h1.79v10.6H497V125.58z"/>
			<path fill="#274185" d="M506.97,127.2h-2v-1.62h2v-2.65h1.81v2.65h3.68v1.62h-3.68v5.43c0,1.66,0.84,2.12,2.12,2.12
				c0.69,0,1.18-0.08,1.58-0.25v1.6c-0.5,0.21-1.07,0.29-1.83,0.29c-2.35,0-3.68-1.18-3.68-3.76V127.2z"/>
			<path fill="#274185" d="M529.34,130.88c0,3.09-2.33,5.72-5.74,5.72c-3.43,0-5.74-2.63-5.74-5.72c0-3.09,2.31-5.72,5.74-5.72
				C527.01,125.16,529.34,127.79,529.34,130.88z M527.45,130.88c0-2.21-1.62-4.04-3.83-4.04c-2.27,0-3.89,1.83-3.89,4.04
				c0,2.21,1.62,4.04,3.89,4.04C525.83,134.92,527.45,133.07,527.45,130.88z"/>
			<path fill="#274185" d="M535.65,121.57c0-0.67,0.57-1.24,1.26-1.24c0.69,0,1.24,0.57,1.24,1.24c0,0.69-0.55,1.26-1.24,1.26
				C536.21,122.83,535.65,122.26,535.65,121.57z M536,125.58h1.79v10.6H536V125.58z"/>
			<path fill="#274185" d="M545.36,125.58h1.79v1.32c0.78-0.92,1.75-1.53,3.09-1.53c0.34,0,0.65,0.04,0.9,0.13v1.75
				c-0.32-0.08-0.63-0.13-1.05-0.13c-1.39,0-2.29,0.71-2.94,1.79v7.28h-1.79V125.58z"/>
			<path fill="#274185" d="M561.74,136.6c-3.57,0-5.78-2.63-5.78-5.72c0-3.22,2.06-5.72,5.34-5.72c2.88,0,4.75,2.02,4.75,4.63
				c0,0.42-0.06,0.82-0.13,1.11h-8.14c0.06,2.54,1.68,4.08,3.95,4.08c1.37,0,2.52-0.63,3.22-1.58l1.32,1.03
				C565.29,135.76,563.72,136.6,561.74,136.6z M557.91,129.53h6.35c-0.06-1.56-1.14-2.86-3.01-2.86
				C559.51,126.68,558.29,127.71,557.91,129.53z"/>
			<path fill="#274185" d="M572.9,133.66c0.74,0.93,1.62,1.45,2.69,1.45c1.18,0,1.85-0.71,1.85-1.64c0-2.38-5.3-1.54-5.3-5.28
				c0-1.66,1.41-3.03,3.45-3.03c1.51,0,2.82,0.72,3.55,1.75l-1.24,1.05c-0.57-0.8-1.37-1.3-2.29-1.3c-1.14,0-1.75,0.67-1.75,1.49
				c0,2.38,5.32,1.62,5.32,5.24c-0.02,1.98-1.6,3.22-3.57,3.22c-1.68,0-3.01-0.67-3.97-1.87L572.9,133.66z"/>
		</g>
	</g>
	<g>
		<g>
			<path fill="#2B2E81" d="M74.09,59.3c0.24-0.24,0.48-0.49,0.71-0.75h0c0.44-0.5,0.88-0.98,1.39-1.42
				c0.16-0.14,0.31-0.26,0.45-0.36c0.04-0.04,0.04-0.13,0.08-0.17c-0.21,0.08-0.33,0.25-0.54,0.33c-0.04,0-0.08-0.04-0.04-0.08
				c0.15-0.11,0.3-0.22,0.45-0.33c-0.01,0-0.02,0-0.03,0c-0.04,0-0.04-0.04-0.04-0.08c-0.54-0.08-0.96,0.29-1.34,0.63
				c-0.08,0.04-0.17-0.04-0.21-0.04c-0.63,0.21-1.09,0.75-1.71,1v-0.08c-0.25,0.08-0.49,0.24-0.75,0.29
				c-0.38,0.08-0.71,0.04-1.04,0.04c-0.51,0.05-1.01,0.16-1.52,0.27c-0.01,0-0.03,0.01-0.04,0.01c-0.27,0.07-0.53,0.18-0.78,0.31
				c-0.01,0.01-0.02,0.01-0.03,0.02c-0.02,0.03-0.04,0.05-0.06,0.07c-0.09,0.1-0.17,0.19-0.29,0.25c-0.26,0.13-0.47,0.36-0.69,0.54
				c-0.02,0.01-0.04,0.02-0.07,0.02c-0.22,0.21-0.45,0.43-0.67,0.64c-0.02,0.02-0.08,0.02-0.13,0.02c0,0,0,0,0,0
				c0.01-0.01,0.02-0.03,0.02-0.04c0.04-0.06,0.07-0.12,0.11-0.18c0.04-0.06,0.08-0.13,0.12-0.19c0.06-0.09,0.11-0.17,0.18-0.25
				c0.02-0.02,0.01-0.04,0-0.06c-0.01-0.01-0.04-0.02-0.06-0.02c0.21-0.2,0.46-0.37,0.7-0.52v-0.01c-0.03,0.01-0.07-0.01-0.05-0.04
				c0.03-0.04,0.05-0.08,0.07-0.11c0.01-0.01,0.01-0.02,0.01-0.04c-0.01-0.01-0.02-0.02-0.03-0.03c-0.07,0.04-0.14,0.09-0.2,0.14
				c-0.1,0.09-0.18,0.27-0.33,0.27c-0.01,0-0.04,0-0.06-0.01c-0.02,0-0.03-0.01-0.04-0.02c0,0,0-0.01,0.01-0.01
				c0,0,0-0.01,0.01-0.01c0,0,0-0.01,0.01-0.01c0.01-0.01,0.01-0.03,0.02-0.04c0.01-0.01,0.01-0.02,0.02-0.04l0.02-0.03l0.03-0.05
				l0.02-0.04c0.02-0.03,0.04-0.06,0.05-0.09c0.01-0.01,0.02-0.03,0.03-0.04c0.02-0.03,0.03-0.05,0.05-0.08
				c0.02-0.04,0-0.06-0.03-0.07c0.08-0.1,0.17-0.18,0.29-0.25h-0.01c0.16-0.08,0.32-0.18,0.48-0.27c0.02-0.02,0.05-0.04,0.07-0.06
				c-0.24,0.08-0.45,0.19-0.66,0.33c0,0-0.05,0.02-0.07,0.04c0,0-0.05,0.02-0.11-0.04c0-0.01-0.01-0.02-0.01-0.03
				c0.04-0.08,0.17-0.12,0.25-0.21c0.04,0,0.08,0,0.08,0.04c1.34-1.04,3.18-0.79,4.72-1.34c0.12-0.08,0.25-0.17,0.38-0.25
				c0.21-0.08,0.38-0.29,0.63-0.42c0.33-0.25,0.58-0.54,0.71-0.96c0-0.04-0.04-0.08-0.04-0.08c-0.54,0.58-1.17,1.04-1.84,1.38
				c-0.88,0.46-1.84,0.38-2.76,0.5c0.04-0.08,0.13-0.08,0.21-0.08c0-0.13,0.08-0.17,0.17-0.25h0.13c0.04,0,0.04-0.08,0.08-0.08
				c0.08,0,0.21-0.04,0.17-0.04c-0.12-0.17-0.38,0.12-0.58,0c0.08-0.08,0.04-0.21,0.13-0.25h0.17c0-0.08,0.08-0.17,0.08-0.17
				c0.63-0.38,1.21-0.67,1.8-1c-0.12,0-0.21,0.12-0.33,0.04c0.08,0,0-0.12,0.08-0.12c0.46-0.12,0.83-0.38,1.29-0.54
				c-0.17,0-0.29,0.12-0.46,0c0.08-0.04,0.12-0.12,0.25-0.12v-0.12c0-0.04,0.04-0.04,0.08-0.04c-0.04,0-0.08-0.04-0.08-0.04
				c0.04-0.08,0.17-0.04,0.25-0.12c-0.04,0-0.12,0-0.12-0.04c0.12-0.17,0.33-0.21,0.54-0.25c-0.04-0.08-0.17,0-0.17-0.08
				c0-0.04,0.04-0.04,0.08-0.04h-0.08c-0.08-0.04-0.04-0.12-0.04-0.17c0.25-0.29,0.25-0.67,0.38-1c-0.04,0-0.08,0-0.08-0.04
				c-0.42,0.46-1.09,0.63-1.71,0.79h-0.21c-0.21,0.08-0.5,0.08-0.71-0.04c-0.17-0.08-0.25-0.21-0.42-0.33
				c-0.33-0.21-0.67-0.38-1.04-0.5c-1.04-0.33-2.13-0.5-3.21-0.46c0.46-0.25,0.97-0.27,1.46-0.42c0.71-0.21,1.38-0.46,2.13-0.42
				c-0.12-0.04-0.29,0-0.42,0c-0.59-0.04-1.17,0.13-1.8,0.25c-0.42,0.08-0.79,0.25-1.21,0.33c-0.25,0.08-0.38,0.33-0.67,0.29v-0.13
				c0.42-0.5,0.92-1,1.59-1.04c0.75-0.12,1.46,0,2.21,0.08c0.54,0.04,1.04,0.17,1.59,0.29c0.21,0,0.25,0.33,0.42,0.38
				c0.25,0.08,0.5,0,0.75,0.17c0-0.08-0.04-0.17,0-0.25c0.17-0.17,0.38,0.04,0.54-0.04c0.33-0.21-0.29-0.58-0.46-0.88
				c0-0.04,0.04-0.08,0.04-0.08c0.33,0.29,0.58,0.63,1,0.83c0.21,0.08,0.71,0.21,0.63-0.04c-0.21-0.46-0.63-0.84-0.96-1.25v-0.17
				c-0.08,0-0.08-0.04-0.12-0.08v-0.17c-0.17-0.08-0.12-0.25-0.21-0.38c-0.12-0.21-0.04-0.5-0.12-0.75
				c-0.08-0.25-0.13-0.46-0.17-0.71c-0.13-0.71-0.29-1.34-0.38-2c-0.08-0.79,0.46-1.42,0.83-2.13c0.29-0.5,0.63-1,1.17-1.34
				c0.12-0.5,0.46-0.92,0.79-1.34c0.33-0.41,0.89-0.66,1.29-0.84c0.58-0.26,1.11-0.42,1.11-0.42l-28.85,0v22.1h20.49
				c0.8-0.57,1.59-0.85,2.7-1.39C72.48,60.26,73.68,59.71,74.09,59.3 M67.67,56.31c-0.08,0-0.25,0.04-0.21-0.04
				c0.04-0.21,0.33-0.21,0.5-0.29c0.08-0.04,0.21-0.12,0.29-0.08c0.08,0.13,0.21,0.08,0.29,0.17
				C68.29,56.31,67.96,56.18,67.67,56.31 M61.28,55.39c0,0-0.04-0.04-0.04-0.08c0.54-0.71,0.96-1.38,1.34-2.13
				c0.54-0.29,0.99-0.72,1.42-1.17c0.71-0.75,1.46-1.42,2.34-1.84c0.33-0.12,0.75-0.08,1.09,0.04c-0.13,0.17-0.33,0.12-0.5,0.25
				c-0.04,0-0.08,0-0.12-0.04c0.04-0.04,0.04-0.08,0.04-0.13c-0.42,0.46-1,0.67-1.34,1.21c-0.25,0.42-0.42,0.96-0.96,1.09
				c-0.17,0.04,0.04-0.12-0.04-0.08C63.2,53.3,62.28,54.26,61.28,55.39 M64.74,52.63c-0.04,0.08-0.09,0.09-0.12,0.17
				c-0.04,0.08-0.08,0.12-0.17,0.17c-0.04,0-0.08,0-0.08-0.04c0.04-0.17,0.17-0.33,0.33-0.38C64.74,52.55,64.74,52.59,64.74,52.63
				 M66.68,58.89c-0.02,0.05-0.06,0.09-0.1,0.12c0.05,0.01,0.09,0.03,0.06,0.07c-0.1,0.09-0.19,0.18-0.32,0.22
				c-0.01,0-0.03,0.01-0.06,0.01c-0.05,0.05-0.1,0.1-0.16,0.15c-0.05,0.04-0.28,0.01-0.21-0.05c0.11-0.1,0.2-0.2,0.31-0.29
				c0.06-0.05,0.12-0.11,0.17-0.17c0.03-0.03,0.05-0.07,0.09-0.09C66.5,58.83,66.72,58.81,66.68,58.89 M65.93,58.54
				C65.93,58.55,65.93,58.55,65.93,58.54c-0.17,0.12-0.32,0.23-0.49,0.33c-0.18,0.1-0.37,0.18-0.55,0.27c0,0,0-0.01-0.01-0.01
				c-0.01-0.02-0.04-0.03-0.07-0.02c-0.16,0.09-0.29,0.2-0.42,0.32c-0.02,0.02-0.04,0.04-0.06,0.06c0,0,0,0,0,0l0,0
				c-0.02,0.02-0.04,0.04-0.06,0.06c0,0-0.01,0.01-0.01,0.01c0,0,0,0,0,0c-0.03,0.03-0.06,0.06-0.09,0.1
				c-0.02,0.02-0.03,0.04-0.06,0.06c-0.03,0.02-0.1,0.02-0.09-0.03c0,0,0-0.01,0-0.01c-0.02,0.01-0.05,0.03-0.07,0.04
				c-0.02,0.01-0.04,0.02-0.07,0.04c-0.01,0-0.02-0.01-0.03,0c-0.01,0-0.02,0-0.03,0.01c-0.05,0.04-0.1,0.08-0.15,0.13
				c-0.09,0.08-0.17,0.17-0.24,0.26c0,0,0,0,0,0c0,0-0.01,0.01-0.01,0.01c0,0.01-0.01,0.01-0.01,0.02L63.4,60.2c0,0,0,0,0,0.01
				c-0.01,0.01-0.02,0.03-0.03,0.04c0,0,0,0,0,0c-0.01,0.01-0.02,0.01-0.03,0.02c-0.01-0.01-0.01-0.02-0.02-0.02
				c0-0.01-0.01-0.01-0.01-0.02c-0.01-0.02-0.03-0.04-0.04-0.07l0,0c0-0.01-0.01-0.01-0.01-0.02c0.04-0.05,0.09-0.1,0.13-0.15
				c0,0,0.01-0.01,0.01-0.01c0.02-0.02,0.03-0.04,0.04-0.05c0.02-0.03,0.05-0.06,0.07-0.09c0.01-0.01,0.02-0.02,0.02-0.03
				c0.05-0.06,0.09-0.12,0.13-0.17c0,0,0,0,0-0.01c0.01-0.01,0.01-0.02,0.02-0.03c0.02-0.03,0.04-0.06,0.06-0.09
				c0.02-0.03,0.03-0.05,0.05-0.08c0,0,0,0,0-0.01l0.01-0.01c0-0.01,0-0.01,0.01-0.02c0.01-0.03,0.03-0.06,0.04-0.1
				c0,0,0-0.01,0-0.01c0-0.01,0.01-0.02,0.01-0.03c0.01-0.01,0.01-0.03,0.01-0.04v0c0,0,0-0.01,0-0.01c0-0.02,0.01-0.04,0.01-0.06
				c0-0.01,0-0.02,0-0.03c0.04-0.08,0.1-0.15,0.17-0.23c-0.01,0-0.01,0.01-0.02,0.01c-0.06,0.04-0.1,0.09-0.15,0.13
				c-0.05,0.03-0.13-0.02-0.08-0.06c0.04-0.03,0.07-0.06,0.1-0.09c0,0,0,0,0-0.01c0.07-0.07,0.14-0.16,0.21-0.21
				c0.05-0.04,0.09-0.07,0.13-0.1c0.01-0.01,0.01-0.01,0.02-0.02c0.03-0.04,0.06-0.07,0.09-0.11c0,0,0,0,0,0
				c0.4-0.39,1.07-0.37,1.6-0.61c0.21-0.08,0.46,0.04,0.67,0c0.12,0,0.25,0,0.38,0.08C66.62,58.1,66.28,58.33,65.93,58.54
				 M66.79,55.64c-0.04-0.04,0.12,0,0.17-0.08h-0.33c-0.04,0-0.04-0.04-0.04-0.08c-0.21,0.04-0.46,0.12-0.67,0.17
				c-0.29,0.08-0.54,0.29-0.88,0.38c-0.46,0.17-0.83,0.54-1.34,0.71c-0.04,0-0.04-0.04-0.04-0.08c0.04-0.12,0.21-0.17,0.29-0.29
				c0-0.04,0-0.08-0.04-0.08c0.33-0.46,0.79-0.71,1.21-1.09v-0.12c0.12-0.17,0.33-0.25,0.42-0.46c0.04-0.13,0.21-0.29,0.42-0.38
				c-0.04-0.04-0.12-0.04-0.12-0.13c-0.17,0-0.33,0.08-0.5-0.04c0.08-0.08,0.17-0.12,0.26-0.15c-0.04-0.01-0.07-0.03-0.09-0.06
				c-0.04-0.08,0.08-0.18,0.21-0.21c0.17-0.04,0.38-0.04,0.5-0.17c-0.29-0.04-0.63,0.08-0.92-0.08c0.21-0.54,0.54-1,1.04-1.25
				c0.04,0,0.12,0,0.12,0.04c0,0.21-0.12,0.38-0.33,0.42c0.33,0.08,0.67,0.08,1,0.25c-0.04,0.08-0.12,0.04-0.17,0.04
				c0.21,0.12,0.46,0.04,0.67,0.21c-0.12,0.12-0.25,0-0.38,0c1.3,0.38,2.67,0.67,3.76,1.5c-0.92,0.46-1.88,0.67-2.88,0.88
				c-0.13,0-0.21,0-0.34-0.04c0,0.04,0,0.12-0.04,0.12c-0.17,0-0.29,0-0.42,0.08C67.17,55.72,66.91,55.76,66.79,55.64"/>
			<path fill="#DF1F26" d="M109.74,39.8H85.97c0,0,0.05,0.01,0.23,0.1c0.19,0.11,0.44,0.24,0.6,0.32c0.31,0.16,0.6,0.36,0.8,0.67
				c0.08,0.12,0.21,0.38,0.12,0.54c-0.08,0.21-0.12,0.54-0.33,0.63c-0.25,0.13-0.58,0.13-0.88,0.08c-0.17,0-0.33-0.04-0.5-0.08
				c0.63,0.25,1.21,0.54,1.63,1.13c0.04,0.08,0.21,0.12,0.38,0.12c0.04,0,0.04,0.08,0.04,0.12c-0.08,0.08-0.17,0.13-0.12,0.25h0.12
				c0.21-0.08,0.17-0.5,0.46-0.38c0.21,0.12,0.29,0.42,0.17,0.63c-0.17,0.17-0.33,0.29-0.5,0.42c-0.04,0.08-0.04,0.21,0,0.29
				c0.13,0.17,0.17,0.33,0.21,0.5c0.12,0.29,0.17,0.63,0.29,0.92c0.17,0.63,0.33,1.25,0.29,1.88c0,0.33-0.17,0.63-0.04,0.96
				c0.08,0.33,0.29,0.58,0.46,0.88c0.17,0.25,0.33,0.42,0.46,0.67c0.25,0.42,0.71,0.83,0.5,1.34c-0.12,0.29-0.58,0.25-0.88,0.42
				c-0.25,0.21-0.04,0.54,0.08,0.75c0.21,0.38-0.25,0.63-0.54,0.75c0.08,0.13,0.25,0.08,0.29,0.17c0.04,0.21,0.25,0.33,0.12,0.54
				c-0.17,0.25-0.67,0.38-0.42,0.75c0.17,0.29,0.06,0.62-0.04,0.92c-0.12,0.38-0.46,0.54-0.75,0.63c-0.25,0.08-0.54,0.08-0.79,0.04
				c-0.08-0.04-0.17-0.08-0.25-0.08c-0.71-0.08-1.42-0.29-2.13-0.29c-0.21,0.04-0.42,0.08-0.58,0.17c-0.19,0.14-0.36,0.29-0.51,0.45
				c0,0,0,0,0,0c-0.03,0.03-0.06,0.07-0.09,0.1c-0.02,0.02-0.04,0.04-0.05,0.06c-0.01,0.02-0.02,0.03-0.04,0.04
				c-0.12,0.15-0.23,0.31-0.33,0.48c-0.01,0.01-0.01,0.02-0.02,0.03c-0.01,0.02-0.02,0.04-0.03,0.06c-0.14,0.25-0.24,0.51-0.32,0.77
				c-0.28,0.96-0.16,1.78,0.04,1.97c0.05,0.06,1.38,0.46,2.3,0.88c0.43,0.19,0.73,0.34,0.99,0.5h23.35V39.8z"/>
			<path fill="#808080" d="M87.38,47.87c0.17,0.04,0.42,0.04,0.42,0.12c-0.08,0.33-0.58,0.42-0.83,0.75h-0.12
				c-0.12,0.08-0.08,0.29-0.21,0.29c-0.12-0.04-0.25,0-0.38,0.04c0.17,0.17,0.38,0.29,0.63,0.25c0.04,0,0.12,0.08,0.12,0.17
				c0,0,0.04,0,0.08-0.04c0.04,0,0.08,0,0.08,0.04v0.17c-0.12,0.17-0.33,0.08-0.5,0.13c0.33,0.08,0.67,0.08,0.96,0
				c0.25-0.08,0-0.5,0.17-0.71c-0.08,0,0-0.12-0.08-0.12c0.08-0.08,0.17-0.21,0.25-0.25c0.08,0,0.21-0.04,0.25-0.12
				c0-0.08-0.17-0.12-0.12-0.21c0.25-0.17,0.46-0.42,0.38-0.67c-0.04-0.12-0.38-0.12-0.58-0.21c-0.21-0.08-0.46,0-0.71,0.04
				c-0.21,0-0.42,0.12-0.63,0.17c-0.29,0.08-0.54,0.25-0.79,0.42c0.29-0.13,0.58-0.17,0.92-0.25C86.92,47.87,87.13,47.8,87.38,47.87
				"/>
		</g>
		<g>
			<path d="M48.63,73.48h5.23c3.77,0,6.09,1.93,6.09,5.11c0,2.05-1,3.6-2.74,4.43l5.38,7.58h-4.16l-4.55-6.92h-1.79v6.92h-3.47
				V73.48z M52.11,76.44v4.28h1.96c1.47,0,2.32-0.78,2.32-2.18c0-1.3-0.86-2.1-2.32-2.1H52.11z"/>
			<path d="M65,73.48h9.98v2.96h-6.51v3.96H74v2.96h-5.53v4.28h6.51v2.96H65V73.48z M68.37,72.02l2.76-3.3h3.57l-3.18,3.3H68.37z"/>
			<path d="M79.26,73.48h5.65c3.77,0,6.07,1.93,6.07,5.11c0,3.16-2.3,5.09-6.07,5.09h-2.18v6.92h-3.47V73.48z M82.73,76.44v4.28
				h2.32c1.47,0,2.35-0.78,2.35-2.18c0-1.3-0.88-2.1-2.35-2.1H82.73z"/>
			<path d="M104.18,73.48h3.47V83.9c0,4.5-2.64,7.19-6.95,7.19c-4.28,0-6.92-2.69-6.92-7.19V73.48h3.47V84.2
				c0,2.3,1.3,3.64,3.47,3.64c2.13,0,3.45-1.35,3.45-3.64V73.48z"/>
			<path d="M112.21,73.48h4.87c3.57,0,5.72,1.76,5.72,4.65c0,1.37-0.64,2.57-1.81,3.38c1.81,0.81,2.81,2.27,2.81,4.06
				c0,3.13-2.42,5.04-6.36,5.04h-5.23V73.48z M115.68,76.44v3.74h1.47c1.32,0,2.08-0.66,2.08-1.88c0-1.15-0.76-1.86-2.08-1.86
				H115.68z M115.68,83.17v4.48h1.96c1.61,0,2.59-0.86,2.59-2.27s-0.98-2.2-2.59-2.2H115.68z"/>
			<path d="M127.59,73.48h3.47v13.97h6.51v3.16h-9.98V73.48z"/>
			<path d="M140.87,73.48h3.47v17.12h-3.47V73.48z"/>
			<path d="M167.34,91.8c0.37,0,0.86-0.05,1.22-0.2v2.94c-0.56,0.22-1.05,0.32-1.81,0.32c-1.91,0-3.67-0.78-5.36-2.25l-2.03-1.81
				c-0.73,0.2-1.52,0.29-2.35,0.29c-5.41,0-9.1-4.16-9.1-9.05c0-4.89,3.69-9.05,9.1-9.05c5.38,0,9.08,4.16,9.08,9.05
				c0,2.86-1.27,5.48-3.38,7.14l1.03,0.98C165.07,91.36,166.24,91.8,167.34,91.8z M162.52,82.05c0-3.28-2.3-5.8-5.5-5.8
				c-3.23,0-5.53,2.52-5.53,5.8c0,3.28,2.3,5.8,5.53,5.8C160.22,87.84,162.52,85.32,162.52,82.05z"/>
			<path d="M179.74,73.48h3.47V83.9c0,4.5-2.64,7.19-6.95,7.19c-4.28,0-6.92-2.69-6.92-7.19V73.48h3.47V84.2
				c0,2.3,1.3,3.64,3.47,3.64c2.13,0,3.45-1.35,3.45-3.64V73.48z"/>
			<path d="M187.77,73.48h9.98v2.96h-6.51v3.96h5.53v2.96h-5.53v4.28h6.51v2.96h-9.98V73.48z"/>
		</g>
		<g>
			<path d="M48.63,99.05h9.98v2.96h-6.51v3.96h5.53v2.96h-5.53v7.24h-3.47V99.05z"/>
			<path d="M61.92,99.05h5.23c3.77,0,6.09,1.93,6.09,5.11c0,2.05-1,3.6-2.74,4.43l5.38,7.58h-4.16l-4.55-6.92h-1.79v6.92h-3.47
				V99.05z M65.39,102.01v4.28h1.96c1.47,0,2.32-0.78,2.32-2.18c0-1.3-0.86-2.1-2.32-2.1H65.39z"/>
			<path d="M83.34,99.05h4.55l6.48,17.12h-3.69l-1.64-4.45h-6.85l-1.64,4.45h-3.69L83.34,99.05z M87.97,108.76l-2.35-6.43
				l-2.35,6.43H87.97z"/>
			<path d="M97.26,99.05h4.45l7.66,12.25V99.05h3.47v17.12h-4.45l-7.66-12.3v12.3h-3.47V99.05z"/>
			<path d="M129.99,111.05l2.74,2.1c-1.32,1.81-3.38,3.08-5.87,3.4l-2.13,3.55h-3.08l2.15-3.6c-4.45-0.78-7.39-4.55-7.39-8.9
				c0-4.89,3.69-9.05,9.1-9.05c3.11,0,5.65,1.39,7.22,3.47l-2.74,2.13c-0.98-1.39-2.52-2.35-4.48-2.35c-3.23,0-5.53,2.52-5.53,5.8
				c0,3.28,2.3,5.8,5.53,5.8C127.47,113.4,129.01,112.45,129.99,111.05z"/>
			<path d="M140.21,99.05h4.55l6.48,17.12h-3.69l-1.64-4.45h-6.85l-1.64,4.45h-3.69L140.21,99.05z M144.84,108.76l-2.35-6.43
				l-2.35,6.43H144.84z"/>
			<path d="M154.13,99.05h3.47v17.12h-3.47V99.05z"/>
			<path d="M163.62,111.47c1.03,1.32,2.4,2.1,3.79,2.1c1.37,0,2.2-0.73,2.2-1.98c0-3.06-7.83-2.37-7.83-8.07
				c0-2.71,2.23-4.97,5.48-4.97c2.57,0,4.55,1.15,5.99,2.89l-2.54,2.27c-1-1.3-2.13-2.13-3.42-2.13c-1.2,0-1.98,0.78-1.98,1.79
				c0,3.06,7.83,2.35,7.83,8.15c-0.05,3.18-2.54,5.14-5.67,5.14c-2.89,0-4.84-1.05-6.36-2.86L163.62,111.47z"/>
			<path d="M177.03,99.05h9.98v2.96h-6.51v3.96h5.53v2.96h-5.53v4.28h6.51v2.96h-9.98V99.05z"/>
		</g>
		<path d="M112.38,168.77c0.53,0,0.99,0.4,0.74,1.42l-2.46,0.57C111.09,169.61,111.8,168.77,112.38,168.77 M113.74,172.74h-0.49
			c-0.62,0.73-1.27,1.3-1.93,1.3c-0.67,0-1.02-0.4-1.02-1.3c0-0.37,0.04-0.74,0.11-1.09l3.97-1.31c0.77-1.83-0.16-2.64-1.25-2.64
			c-1.88,0-4.01,3.14-4.01,5.89c0,1.23,0.59,1.91,1.5,1.91C111.7,175.5,112.82,174.46,113.74,172.74 M112.95,166.98l2.79-2.61v-0.3
			h-1.51l-1.72,2.91H112.95z M104.38,168.81h1.32l-2.09,5.72c-0.19,0.49,0.07,0.97,0.57,0.97c1.19,0,3.11-1.18,3.78-2.78h-0.37
			c-0.53,0.56-1.55,1.3-2.42,1.46l1.92-5.37h1.96l0.24-0.82h-1.91l0.73-2.06h-0.76l-1.36,2.06l-1.62,0.23V168.81z M102.6,168.54
			c0.16-0.53-0.2-0.83-0.47-0.83c-1.15,0-2.51,1.03-3.05,2.48h0.37c0.37-0.53,1-1.12,1.59-1.22l-2.19,5.7
			c-0.2,0.53,0.2,0.83,0.47,0.83c1.09,0,2.36-1.05,2.91-2.48h-0.37c-0.37,0.53-1,1.12-1.59,1.22L102.6,168.54z M103.01,165.67
			c0.52,0,0.95-0.42,0.95-0.95c0-0.52-0.43-0.95-0.95-0.95c-0.53,0-0.95,0.43-0.95,0.95C102.06,165.26,102.48,165.67,103.01,165.67
			 M90.38,174.44c-0.29,0.64,0.01,1.06,0.64,1.06c0.39,0,0.56-0.1,0.72-0.52l1.52-4.03c0.7-0.86,2.15-1.78,2.72-1.78
			c0.42,0,0.36,0.34,0.09,0.86l-2.34,4.49c-0.23,0.44,0.07,0.97,0.57,0.97c1.15,0,2.51-1.03,3.05-2.48h-0.37
			c-0.37,0.53-1,1.12-1.59,1.22l2.01-4.05c0.26-0.52,0.39-1,0.39-1.39c0-0.66-0.37-1.09-1.06-1.09c-0.99,0-1.99,1.12-3.18,2.49
			v-1.06c0-0.76-0.24-1.43-0.93-1.43c-0.43,0-0.85,0.37-1.23,0.9v0.14c0.74-0.04,1.07,1.07,0.54,2.25L90.38,174.44z M90.35,169.46
			c0.27-0.93,0.13-1.75-0.59-1.75c-0.85,0-1.06,0.64-1.92,2.49v-1.06c0-0.76-0.24-1.43-0.93-1.43c-0.8,0-1.53,1.25-2.09,2.48h0.37
			c0.39-0.56,0.74-0.89,1.03-0.89c0.34,0,0.53,0.53,0,1.71l-1.55,3.44c-0.29,0.64,0.01,1.06,0.64,1.06c0.39,0,0.56-0.1,0.72-0.52
			l1.52-4.03c0.43-0.53,0.82-0.99,1.3-1.5H90.35z M81.56,168.77c0.53,0,0.99,0.4,0.74,1.42l-2.46,0.57
			C80.27,169.61,80.98,168.77,81.56,168.77 M82.92,172.74h-0.49c-0.62,0.73-1.28,1.3-1.93,1.3c-0.67,0-1.02-0.4-1.02-1.3
			c0-0.37,0.04-0.74,0.11-1.09l3.97-1.31c0.77-1.83-0.16-2.64-1.25-2.64c-1.88,0-4.01,3.14-4.01,5.89c0,1.23,0.59,1.91,1.51,1.91
			C80.88,175.5,82,174.46,82.92,172.74 M73.56,168.81h1.32l-2.09,5.72c-0.19,0.49,0.07,0.97,0.57,0.97c1.19,0,3.11-1.18,3.78-2.78
			h-0.37c-0.53,0.56-1.55,1.3-2.42,1.46l1.92-5.37h1.96l0.24-0.82h-1.91l0.73-2.06h-0.76l-1.36,2.06l-1.62,0.23V168.81z
			 M66.33,173.27c0-1.76,1.96-4.16,3.07-4.16c0.24,0,0.47,0.03,0.67,0.09l-1.15,3.05c-0.66,0.8-1.68,1.78-2.15,1.78
			C66.5,174.03,66.33,173.8,66.33,173.27 M72.36,167.38l-0.6-0.04l-0.67,0.66h-0.14c-3.27,0-6.09,3.67-6.09,6.33
			c0,0.75,0.46,1.18,1.17,1.18c0.85,0,1.68-1.2,2.61-2.49l-0.04,0.46c-0.11,1.32,0.29,2.04,0.97,2.04c0.8,0,1.53-1.25,2.09-2.48
			h-0.37c-0.39,0.56-0.75,0.89-1.03,0.89c-0.3,0-0.52-0.54,0-1.71L72.36,167.38z M65.39,169.46c0.27-0.93,0.13-1.75-0.59-1.75
			c-0.85,0-1.06,0.64-1.92,2.49v-1.06c0-0.76-0.24-1.43-0.93-1.43c-0.8,0-1.53,1.25-2.09,2.48h0.37c0.39-0.56,0.74-0.89,1.03-0.89
			c0.34,0,0.53,0.53,0,1.71l-1.55,3.44c-0.29,0.64,0.01,1.06,0.65,1.06c0.39,0,0.56-0.1,0.72-0.52l1.52-4.03
			c0.43-0.53,0.82-0.99,1.3-1.5H65.39z M54.42,175.22l0.14-0.44c-1.91-0.36-2.15-0.36-1.39-2.44l0.77-2.13h2.11
			c0.95,0,0.96,0.39,0.82,1.42h0.54l1.26-3.45h-0.54c-0.47,0.82-0.85,1.42-1.88,1.42h-2.08l1.1-3.02c0.35-0.96,0.54-1.16,1.83-1.16
			h0.92c1.33,0,1.49,0.36,1.49,1.71h0.53l0.44-2.35h-7.91l-0.14,0.44c1.53,0.32,1.68,0.46,0.96,2.44l-1.72,4.7
			c-0.72,1.96-1.02,2.12-2.78,2.44l-0.13,0.44H54.42z"/>
		<path d="M93.19,150.86c0.53,0,0.99,0.4,0.74,1.42l-2.46,0.57C91.9,151.7,92.62,150.86,93.19,150.86 M94.55,154.83h-0.49
			c-0.62,0.73-1.27,1.3-1.93,1.3c-0.67,0-1.02-0.4-1.02-1.3c0-0.37,0.04-0.75,0.11-1.09l3.97-1.3c0.77-1.83-0.16-2.64-1.25-2.64
			c-1.88,0-4.01,3.14-4.01,5.89c0,1.23,0.59,1.9,1.5,1.9C92.52,157.59,93.63,156.55,94.55,154.83 M93.76,149.07l2.79-2.61v-0.3
			h-1.51l-1.72,2.91H93.76z M85.2,150.9h1.32l-2.09,5.72c-0.19,0.49,0.07,0.97,0.57,0.97c1.19,0,3.11-1.18,3.78-2.78h-0.37
			c-0.53,0.56-1.55,1.3-2.42,1.46l1.92-5.37h1.96l0.24-0.82H88.2l0.73-2.06h-0.76l-1.36,2.06l-1.62,0.23V150.9z M83.42,150.63
			c0.16-0.53-0.2-0.83-0.47-0.83c-1.15,0-2.51,1.03-3.05,2.48h0.37c0.37-0.53,1-1.12,1.59-1.22l-2.19,5.7
			c-0.2,0.53,0.2,0.83,0.47,0.83c1.09,0,2.36-1.05,2.91-2.48h-0.37c-0.37,0.53-1,1.12-1.59,1.22L83.42,150.63z M83.82,147.76
			c0.52,0,0.95-0.42,0.95-0.95c0-0.52-0.43-0.95-0.95-0.95c-0.53,0-0.95,0.43-0.95,0.95C82.87,147.35,83.29,147.76,83.82,147.76
			 M76.2,156.33l4-10.48l-0.13-0.16l-2.51,0.29v0.3l0.49,0.37c0.44,0.34,0.3,0.67-0.1,1.73l-3.12,8.22
			c-0.23,0.44,0.07,0.97,0.57,0.97c1.15,0,2.36-1.03,2.91-2.48h-0.37C77.56,155.64,76.78,156.23,76.2,156.33 M68.6,155.36
			c0-1.76,1.96-4.15,3.07-4.15c0.24,0,0.47,0.03,0.67,0.09l-1.15,3.05c-0.66,0.8-1.68,1.78-2.15,1.78
			C68.78,156.12,68.6,155.89,68.6,155.36 M74.64,149.47l-0.6-0.04l-0.67,0.66h-0.14c-3.27,0-6.09,3.67-6.09,6.33
			c0,0.75,0.46,1.18,1.18,1.18c0.85,0,1.68-1.2,2.61-2.49l-0.04,0.46c-0.12,1.32,0.29,2.03,0.97,2.03c0.8,0,1.53-1.25,2.09-2.48
			h-0.37c-0.39,0.56-0.75,0.89-1.03,0.89c-0.3,0-0.52-0.54,0-1.7L74.64,149.47z M60.05,158.98c0-0.76,0.73-1.23,1.78-1.65
			c0.34,0.17,0.86,0.36,1.55,0.59c1.09,0.36,1.51,0.5,1.51,0.83c0,0.7-1.19,1.23-2.81,1.23C60.71,159.98,60.05,159.7,60.05,158.98
			 M63.02,154.35c-0.47,0-0.66-0.4-0.66-0.86c0-1.28,0.69-3.15,1.76-3.15c0.47,0,0.66,0.4,0.66,0.86
			C64.78,152.48,64.09,154.35,63.02,154.35 M66.12,158.28c0-0.92-0.82-1.25-2.15-1.65c-1.15-0.34-1.66-0.44-1.66-0.82
			c0-0.3,0.24-0.66,0.73-0.92c1.88-0.1,3.1-1.79,3.1-3.21c0-0.3-0.06-0.56-0.16-0.79h1.59l0.24-0.82h-2.52
			c-0.3-0.19-0.66-0.29-1.02-0.29c-1.99,0-3.28,1.75-3.28,3.17c0,1.07,0.69,1.75,1.52,1.91c-0.93,0.42-1.45,0.9-1.45,1.48
			c0,0.33,0.11,0.56,0.39,0.77c-2.15,0.63-2.99,1.35-2.99,2.36c0,0.99,1.3,1.4,2.85,1.4C63.93,160.89,66.12,159.47,66.12,158.28
			 M56.11,152.15c0.95,0,0.96,0.39,0.82,1.42h0.55l1.26-3.45h-0.54c-0.47,0.82-0.85,1.42-1.88,1.42h-2.08l1.04-2.88
			c0.35-0.96,0.55-1.15,1.84-1.15h0.92c1.33,0,1.49,0.36,1.49,1.69h0.53l0.44-2.35h-7.91l-0.14,0.44c1.53,0.32,1.68,0.46,0.96,2.44
			l-1.72,4.7c-0.72,1.96-1.02,2.12-2.78,2.44l-0.13,0.44h8.8l1.58-2.49h-0.6c-1,0.94-2.26,1.85-4.03,1.85
			c-2.34,0-2.12-0.1-1.35-2.24l0.83-2.28H56.11z M57.26,146.14l2.79-1.92v-0.3h-1.69l-1.55,2.22H57.26z"/>
		<path d="M92.26,132.95c0.53,0,0.99,0.4,0.74,1.42l-2.46,0.57C90.97,133.79,91.69,132.95,92.26,132.95 M93.62,136.92h-0.49
			c-0.62,0.73-1.27,1.3-1.93,1.3c-0.67,0-1.02-0.4-1.02-1.3c0-0.37,0.04-0.74,0.11-1.09l3.97-1.3c0.77-1.83-0.16-2.64-1.25-2.64
			c-1.88,0-4.01,3.14-4.01,5.89c0,1.23,0.59,1.91,1.5,1.91C91.59,139.68,92.7,138.63,93.62,136.92 M92.83,131.16l2.79-2.61v-0.3
			h-1.5l-1.72,2.91H92.83z M84.62,132.99h1.05l-2.09,5.72c-0.19,0.49,0.07,0.97,0.57,0.97c1.19,0,3.11-1.18,3.78-2.78h-0.37
			c-0.53,0.56-1.55,1.3-2.42,1.46l1.92-5.37h1.96l0.24-0.82h-1.91l0.73-2.06h-0.76l-1.36,2.06l-1.35,0.23V132.99z M83.59,133.63
			c0.27-0.93,0.13-1.75-0.59-1.75c-0.85,0-1.06,0.64-1.92,2.49v-1.06c0-0.76-0.24-1.43-0.93-1.43c-0.8,0-1.53,1.25-2.09,2.48h0.37
			c0.39-0.56,0.74-0.89,1.03-0.89c0.34,0,0.53,0.53,0,1.7l-1.55,3.44c-0.29,0.64,0.01,1.06,0.65,1.06c0.39,0,0.56-0.1,0.72-0.52
			l1.52-4.03c0.43-0.53,0.82-0.99,1.31-1.5H83.59z M74.79,132.95c0.53,0,0.99,0.4,0.74,1.42l-2.46,0.57
			C73.5,133.79,74.22,132.95,74.79,132.95 M76.15,136.92h-0.49c-0.62,0.73-1.27,1.3-1.93,1.3c-0.67,0-1.02-0.4-1.02-1.3
			c0-0.37,0.04-0.74,0.11-1.09l3.97-1.3c0.77-1.83-0.16-2.64-1.25-2.64c-1.88,0-4.01,3.14-4.01,5.89c0,1.23,0.59,1.91,1.5,1.91
			C74.12,139.68,75.24,138.63,76.15,136.92 M66.43,138.52c-0.39,0-0.95-0.36-0.95-0.67c0-0.1,0.17-0.54,0.39-1.1l0.64-1.71
			c0.69-0.82,1.73-1.69,2.32-1.69c0.36,0,0.63,0.23,0.63,0.76C69.46,135.67,68,138.52,66.43,138.52 M70.94,133.48
			c0-1.16-0.43-1.59-1.23-1.59c-1,0-1.95,1.06-2.89,2.35l2.39-6.29l-0.13-0.16l-2.51,0.29v0.3l0.49,0.37c0.44,0.35,0.3,0.7-0.1,1.73
			l-2.58,6.65c-0.19,0.49-0.42,1.06-0.42,1.22c0,0.69,0.93,1.33,1.78,1.33C67.69,139.68,70.94,136.17,70.94,133.48 M63.14,132.72
			c0.16-0.53-0.2-0.83-0.47-0.83c-1.15,0-2.51,1.03-3.05,2.48h0.37c0.37-0.53,1-1.12,1.59-1.22l-2.19,5.7
			c-0.2,0.53,0.2,0.83,0.47,0.83c1.09,0,2.36-1.05,2.91-2.48H62.4c-0.37,0.53-1,1.12-1.59,1.22L63.14,132.72z M63.55,129.85
			c0.52,0,0.95-0.42,0.95-0.95c0-0.52-0.43-0.95-0.95-0.95c-0.53,0-0.94,0.43-0.94,0.95C62.6,129.44,63.02,129.85,63.55,129.85
			 M57.77,128.93h-5.21l-0.14,0.44c1.53,0.32,1.68,0.46,0.96,2.44l-1.69,4.7c-0.72,1.96-1.02,2.12-2.78,2.44l-0.13,0.44h7.94
			l1.72-3.07h-0.6c-0.98,1.08-2.12,2.42-3.88,2.42c-1.33,0-1.49-0.23-0.77-2.23l1.69-4.7c0.7-1.96,1.02-2.12,2.78-2.44L57.77,128.93
			z"/>
	</g>
</g>
</svg>
