<?xml version="1.0" encoding="utf-8"?>
<!-- Generator: Adobe Illustrator 27.9.0, SVG Export Plug-In . SVG Version: 6.00 Build 0)  -->
<svg version="1.1" id="Calque_1" xmlns="http://www.w3.org/2000/svg" xmlns:xlink="http://www.w3.org/1999/xlink" x="0px" y="0px"
	 viewBox="0 0 506.3 136.7" style="enable-background:new 0 0 506.3 136.7;" xml:space="preserve">
<style type="text/css">
	.st0{fill:#5C72B6;}
	.st1{fill:#FFFFFF;}
</style>
<g id="Calque_1_00000152943741281986429690000003441343954183785870_">
</g>
<g id="Calque_2_00000147914146873526374570000015301038561090189441_">
	<rect y="0" class="st0" width="506.3" height="136.7"/>
	<g>
		<path class="st1" d="M100.9,82.5l12.8,9.8c-7.3,9.9-19.2,16.3-33.6,16.3c-25.2,0-42.4-19.4-42.4-42.2S54.8,24.3,80,24.3
			c14.5,0,26.3,6.5,33.6,16.2l-12.8,9.9C96.3,43.9,89.2,39.5,80,39.5c-15.1,0-25.8,11.7-25.8,27s10.7,27,25.8,27
			C89.2,93.5,96.3,89,100.9,82.5z"/>
		<path class="st1" d="M173.6,97.8c0-5.4,4.6-9.9,10-9.9c5.4,0,9.9,4.6,9.9,9.9s-4.6,9.9-9.9,9.9
			C178.2,107.7,173.6,103.2,173.6,97.8z"/>
		<path class="st1" d="M213.1,26.6l23.6,62.4l23.6-62.4h17.2l-30.2,79.8h-21.2l-30.2-79.8C195.9,26.6,213.1,26.6,213.1,26.6z"/>
		<path class="st1" d="M291.4,29.4c0-5.1,4.3-9.5,9.5-9.5s9.4,4.3,9.4,9.5s-4.2,9.5-9.4,9.5S291.4,34.6,291.4,29.4z M293.5,48.9H308
			v57.5h-14.5V48.9z"/>
		<path class="st1" d="M132.1,30.4c0-5.1,4.3-9.5,9.5-9.5s9.4,4.3,9.4,9.5s-4.2,9.5-9.4,9.5S132.1,35.6,132.1,30.4z M134.2,49.9
			h14.5v57.5h-14.5V49.9z"/>
		<path class="st1" d="M331,20.9h14.5v85.5H331V20.9z"/>
		<path class="st1" d="M368.6,20.9H383v85.5h-14.5V20.9z"/>
		<path class="st1" d="M433.9,108.7c-20.4,0-31.9-14.2-31.9-31c0-17,10.7-31,29.5-31c16,0,26.5,10.7,26.5,25.8
			c0,3.2-0.5,6.3-0.9,8.2h-40.2c0.9,9.5,7.5,15.1,17.3,15.1c6.3,0,11.4-2.7,14.5-6.8L459,97C453.6,104.2,444.7,108.7,433.9,108.7z
			 M417.7,69.7h25.9c-0.2-5.7-4.5-10.9-12.1-10.9C424.4,58.7,419.6,62.1,417.7,69.7z"/>
	</g>
</g>
</svg>
