<?xml version="1.0" encoding="UTF-8"?><svg id="a" xmlns="http://www.w3.org/2000/svg" viewBox="0 0 1806.4 300.24"><defs><style>.b{fill:#472e2b;}.c{fill:#fff;}.d{fill:#293682;}.e{stroke-width:8.05px;}.e,.f,.g,.h,.i,.j,.k,.l,.m,.n{fill:none;}.e,.f,.g,.h,.i,.j,.k,.m,.n{stroke-miterlimit:10;}.e,.f,.g,.h,.m,.n{stroke:#fff;}.o{fill:#99592b;}.p{fill:#d9d9db;}.q{fill:#403d3d;}.r{fill:#f0a694;}.s{fill:#a6a8ab;}.t{fill:#b5c7e8;}.u{fill:#f75900;}.v{fill:#859cd9;}.f{stroke-width:9.1px;}.w{fill:#4a4f52;}.x{fill:#004082;}.y{fill:#ffa805;}.g{stroke-width:7.85px;}.a`{fill:#c9d6f2;}.aa{fill:#fdcf3f;}.ab{fill:#9eb2e0;}.ac{fill:#7d8287;}.ad{fill:#e88c73;}.h{stroke-width:9.81px;}.ae{fill:#00ab8c;}.i{stroke-width:5.42px;}.i,.k,.l{stroke:#403d3d;}.af{fill:#f5a691;}.ag{fill:#5770bf;}.j{stroke:#5770bf;stroke-width:.95px;}.ah{fill:#e6eaf5;}.k{stroke-width:1.38px;}.l{stroke-linejoin:round;stroke-width:.29px;}.l,.n{stroke-linecap:round;}.m{stroke-width:4px;}.n{stroke-width:3px;}</style></defs><rect class="ah" x="0" y="186.24" width="1806.4" height="114"/><polygon class="ab" points="564.28 140.18 563.63 140.18 563.63 138.35 563.63 137.46 563.63 123.13 563.63 122.23 563.63 107.91 563.63 107.01 563.63 92.69 563.63 91.79 563.63 74.67 557.64 74.67 556.75 74.67 550.38 74.67 549.49 74.67 542.85 74.67 542.85 213.73 564.28 213.73 564.28 140.18"/><polygon class="a`" points="542.68 74.67 535.87 78.83 534.98 79.37 528.62 83.26 527.72 83.81 521.36 87.69 520.46 88.24 514.65 91.79 514.1 92.13 513.82 92.3 513.82 92.69 513.82 107.01 513.82 107.91 513.82 122.23 513.82 123.13 513.82 134.05 501.56 134.05 478 134.05 478 116.94 472.06 116.94 472.06 109.28 451.85 109.28 451.35 109.28 434.19 109.28 434.19 116.94 428.75 116.94 428.75 213.73 542.85 213.73 542.85 74.67 542.68 74.67"/><rect class="t" x="564.28" y="140.18" width="19.01" height="73.55"/><polygon class="a`" points="583.54 92.19 583.54 95.98 583.54 140.18 583.29 140.18 583.29 213.73 617.33 213.73 617.33 92.19 583.54 92.19"/><polygon class="p" points="639.56 153.27 635.4 153.27 635.4 95.98 635.4 92.19 624.9 92.19 617.33 92.19 617.33 213.73 639.56 213.73 639.56 153.27"/><polygon class="t" points="675.68 128.2 675.68 116.91 670.29 116.91 670.29 103.48 663.1 103.48 654.46 103.48 647.83 103.48 647.83 116.91 641.92 116.91 641.92 128.2 639.56 128.2 639.56 213.73 677.96 213.73 677.96 128.2 675.68 128.2"/><polygon class="a`" points="732.21 138.44 711.21 123.69 710.98 123.77 710.98 213.73 732.21 213.73 732.21 138.44"/><polygon class="ab" points="682.28 133.82 682.28 153.27 677.96 153.27 677.96 213.73 710.98 213.73 710.98 123.77 682.28 133.82"/><rect class="d" x="1591.01" y="60.24" width="31.18" height="16.63"/><rect class="v" x="1557" y="71.77" width="42.95" height="173.6"/><rect class="d" x="1599.95" y="71.77" width="31.18" height="173.6"/><path class="e" d="M1592.24,101.53V234.26m-8.22-132.73V234.26m-8.22-132.73V234.26m-8.22-132.73V234.26m54.43-132.73V234.26m-7.65-132.73V234.26m-7.65-132.73V234.26"/><rect class="v" x="1565.18" y="60.24" width="26.59" height="16.63"/><path class="e" d="M1564.06,83.32h28.7m-28.7,3.44h28.7m-28.7,3.44h28.7"/><rect class="ag" x="1630.33" y="97.54" width="59.39" height="128.34"/><rect class="aa" x="1666.59" y="97.54" width="23.13" height="128.34"/><path class="f" d="M1639.52,214.18h18.92m-18.92-75.7h18.92m-18.92-10.81h18.92m-18.92-10.82h18.92m14.81,97.33h10.44m-10.44-10.82h10.44m-10.44-10.81h10.44m-10.44-10.81h10.44m-10.44-10.81h10.44m-10.44-10.81h10.44m-10.44-10.82h10.44m-10.44-10.81h10.44m-10.44-10.81h10.44m-10.44-10.82h10.44"/><rect class="d" x="621.14" y="41.94" width="33.4" height="17.82"/><rect class="v" x="584.71" y="54.3" width="46.01" height="185.96"/><rect class="d" x="630.72" y="54.3" width="33.4" height="185.96"/><path class="m" d="M622.43,86.17V228.35m-8.89-142.18V228.35m-8.89-142.18V228.35m-8.89-142.18V228.35m58.87-142.18V228.35m-8.27-142.18V228.35m-8.27-142.18V228.35"/><rect class="v" x="593.48" y="41.94" width="28.48" height="17.82"/><path class="e" d="M592.28,66.38h30.74m-30.74,3.97h30.74m-30.74,3.97h30.74"/><polygon class="c" points="734.03 7.14 734.03 207.47 732.58 207.47 732.58 8.03 734.03 7.14"/><polygon class="c" points="745.73 0 745.73 207.47 744.28 207.47 744.28 .88 745.73 0"/><rect class="ag" x="663.26" y="81.9" width="63.61" height="152.35"/><rect class="aa" x="702.1" y="81.9" width="24.77" height="137.47"/><path class="f" d="M673.11,207.16h20.26m-20.26-81.59h20.26m-20.26-11.66h20.26m-20.26-11.66h20.26m15.87,104.9h11.18m-11.18-11.66h11.18m-11.18-11.66h11.18m-11.18-11.66h11.18m-11.18-11.66h11.18m-11.18-11.66h11.18m-11.18-11.65h11.18m-11.18-11.66h11.18m-11.18-11.66h11.18m-11.18-11.66h11.18"/><rect class="d" x="547.2" y="207.08" width="31.31" height="68.43"/><rect class="ag" x="524.27" y="166.59" width="78.35" height="44.78"/><rect class="ae" x="571.3" y="166.59" width="31.31" height="44.78"/><polygon class="d" points="524.27 166.59 602.61 166.59 579.1 144.2 547.78 144.2 524.27 166.59"/><polygon class="d" points="547.78 207.09 626.13 207.09 602.61 184.69 571.3 184.69 547.78 207.09"/><polygon class="ag" points="547.78 144.2 524.27 166.59 547.78 170.96 571.3 166.59 547.78 144.2"/><polygon class="ag" points="594.82 207.09 571.3 184.69 524.27 184.69 500.17 207.09 500.17 275.52 547.78 275.52 578.52 275.52 626.13 275.52 626.13 207.09 594.82 207.09"/><rect class="ae" x="594.82" y="207.08" width="31.31" height="68.43"/><rect class="c" x="599.57" y="215.4" width="10.04" height="4.03"/><rect class="c" x="612.6" y="215.4" width="10.04" height="4.03"/><rect class="c" x="599.57" y="224.41" width="10.04" height="4.03"/><rect class="c" x="612.6" y="224.41" width="10.04" height="4.03"/><rect class="c" x="575.43" y="170.51" width="10.04" height="4.03"/><rect class="c" x="588.45" y="170.51" width="10.04" height="4.03"/><rect class="c" x="575.43" y="177.54" width="10.04" height="4.03"/><rect class="c" x="588.45" y="177.54" width="10.04" height="4.03"/><rect class="c" x="599.57" y="233.41" width="10.04" height="4.03"/><rect class="c" x="612.6" y="233.41" width="10.04" height="4.03"/><path class="aa" d="M557.52,275.52h-19.61v-56.01c0-5.15,4.39-9.33,9.8-9.33s9.8,4.18,9.8,9.33v56.01Z"/><polygon class="aa" points="310.31 86.72 314.7 104.52 364.48 104.52 355.56 86.72 310.31 86.72"/><rect class="aa" x="179.95" y="158.26" width="147.62" height="73.81"/><polygon class="d" points="335.57 158.26 179.95 158.26 216.86 121.35 298.67 121.35 335.57 158.26"/><polygon class="ae" points="309.12 158.26 179.95 158.26 216.86 121.35 272.22 121.35 309.12 158.26"/><polygon class="aa" points="193.81 166.52 220.51 139.81 247.22 166.52 193.81 166.52"/><polygon class="d" points="238.97 158.26 259.43 139.81 220.51 139.81 238.97 158.26"/><rect class="v" x="272.22" y="104.52" width="49.81" height="127.55"/><rect class="d" x="322.03" y="104.52" width="42.46" height="127.55"/><polygon class="v" points="281.17 86.72 272.24 104.52 322.03 104.52 313.1 86.72 281.17 86.72"/><g><path class="c" d="M300.49,98.14c0,2.29-1.86,4.15-4.15,4.15s-4.15-1.86-4.15-4.15,1.86-4.15,4.15-4.15,4.15,1.86,4.15,4.15"/><path class="c" d="M224.83,158.26c0,2.29-1.86,4.15-4.15,4.15s-4.15-1.86-4.15-4.15,1.86-4.15,4.15-4.15,4.15,1.86,4.15,4.15"/><path class="c" d="M286.76,128.58h-7.43v-10.51c0-2.05,1.66-3.71,3.71-3.71s3.71,1.66,3.71,3.71v10.51Z"/><path class="c" d="M300.05,128.58h-7.43v-10.51c0-2.05,1.66-3.71,3.71-3.71s3.71,1.66,3.71,3.71v10.51Z"/><path class="c" d="M313.34,128.58h-7.43v-10.51c0-2.05,1.66-3.71,3.71-3.71s3.71,1.66,3.71,3.71v10.51Z"/><path class="c" d="M286.76,159.26h-7.43v-10.51c0-2.05,1.66-3.71,3.71-3.71s3.71,1.66,3.71,3.71v10.51Z"/><path class="c" d="M300.05,159.26h-7.43v-10.51c0-2.05,1.66-3.71,3.71-3.71s3.71,1.66,3.71,3.71v10.51Z"/><path class="c" d="M313.34,159.26h-7.43v-10.51c0-2.05,1.66-3.71,3.71-3.71s3.71,1.66,3.71,3.71v10.51Z"/><path class="c" d="M286.76,189.94h-7.43v-10.51c0-2.05,1.66-3.71,3.71-3.71s3.71,1.66,3.71,3.71v10.51Z"/><path class="c" d="M300.05,189.94h-7.43v-10.51c0-2.05,1.66-3.71,3.71-3.71s3.71,1.66,3.71,3.71v10.51Z"/><path class="c" d="M313.34,189.94h-7.43v-10.51c0-2.05,1.66-3.71,3.71-3.71s3.71,1.66,3.71,3.71v10.51Z"/></g><path class="k" d="M349.45,86.92l8.75,17.4m-16.22-17.4l8.75,17.4m-16.22-17.4l8.75,17.4m-16.22-17.4l8.75,17.4m-16.22-17.4l8.75,17.4"/><rect class="c" x="187.1" y="174.19" width="11.18" height="11.18"/><rect class="c" x="209.34" y="174.19" width="11.18" height="11.18"/><rect class="c" x="231.57" y="174.19" width="11.18" height="11.18"/><rect class="c" x="253.81" y="174.19" width="11.18" height="11.18"/><rect class="c" x="187.1" y="195.17" width="11.18" height="11.18"/><rect class="c" x="209.34" y="195.17" width="11.18" height="11.18"/><rect class="c" x="231.57" y="195.17" width="11.18" height="11.18"/><rect class="c" x="253.81" y="195.17" width="11.18" height="11.18"/><rect class="ag" x="0" y="157.59" width="40.24" height="74.43"/><polygon class="c" points="77.39 232.02 37.15 232.02 37.15 157.59 58.08 139.18 77.39 157.59 77.39 232.02"/><polygon class="aa" points="21.33 139.18 0 157.59 37.15 157.59 58.08 139.18 21.33 139.18"/><g><path class="aa" d="M48.52,169.49v9.5h7.85v-9.5c0-1.72-1.09-3.2-2.62-3.74-.42-.16-.84-.23-1.3-.23-2.16,0-3.92,1.79-3.92,3.97"/><path class="aa" d="M48.52,191.56v9.5h7.85v-9.5c0-1.72-1.09-3.2-2.62-3.74-.42-.16-.84-.23-1.3-.23-2.16,0-3.92,1.79-3.92,3.97"/><path class="aa" d="M48.52,213.64v9.5h7.85v-9.5c0-1.72-1.09-3.2-2.62-3.74-.42-.16-.84-.23-1.3-.23-2.16,0-3.92,1.79-3.92,3.97"/><path class="aa" d="M62.19,169.49v9.5h7.85v-9.5c0-1.72-1.09-3.2-2.62-3.74-.42-.16-.84-.23-1.3-.23-2.16,0-3.92,1.79-3.92,3.97"/><path class="aa" d="M62.19,191.56v9.5h7.85v-9.5c0-1.72-1.09-3.2-2.62-3.74-.42-.16-.84-.23-1.3-.23-2.16,0-3.92,1.79-3.92,3.97"/><path class="aa" d="M62.19,213.64v9.5h7.85v-9.5c0-1.72-1.09-3.2-2.62-3.74-.42-.16-.84-.23-1.3-.23-2.16,0-3.92,1.79-3.92,3.97"/></g><rect class="c" x="20.04" y="174.18" width="6.32" height="9.06"/><rect class="c" x="8.81" y="174.18" width="6.32" height="9.06"/><rect class="c" x="20.04" y="189.1" width="6.32" height="9.06"/><rect class="c" x="8.81" y="189.1" width="6.32" height="9.06"/><g><path class="aa" d="M18.11,216.04v16.03h13.3v-16.03c0-2.96-1.88-5.48-4.5-6.39-.67-.24-1.39-.35-2.16-.35-3.67,0-6.64,3.03-6.64,6.75"/><path class="aa" d="M22.39,216.04v16.03h9.03v-16.03c0-2.96-1.88-5.48-4.51-6.39-2.65,.92-4.53,3.43-4.53,6.39"/></g><rect class="ag" x="108" y="197.68" width="79.07" height="34.39"/><rect class="d" x="155.47" y="197.68" width="31.6" height="34.39"/><polygon class="ae" points="108 197.68 187.07 197.68 163.34 161.87 131.73 161.87 108 197.68"/><polygon class="ag" points="108 197.68 131.73 161.87 155.47 197.68 108 197.68"/><polygon class="c" points="131.73 184.22 122.9 198.44 140.56 198.44 131.73 184.22"/><g><path class="ae" d="M126.01,226.57c-4.44,0-8.58,1.23-12.13,3.35-4.9-10.89-15.84-18.48-28.56-18.48-11.43,0-21.43,6.13-26.89,15.28-10.04,1.1-18.21,8.46-20.49,18.1h111.17c-2.48-10.47-11.88-18.26-23.1-18.26"/><path class="ag" d="M401.61,204.91c-1.84-2.63-2.55-5.93-1.4-8.93,.49-1.29,.76-2.68,.76-4.14,0-3.21-1.3-6.11-3.39-8.23-1.23-1.24-1.2-3.21,.03-4.45,1.96-1.99,3.21-4.67,3.35-7.65,.3-6.48-5.02-12.16-11.51-12.26-6.55-.1-11.89,5.18-11.89,11.71,0,3.21,1.3,6.12,3.39,8.23,1.22,1.23,1.22,3.19,0,4.42-2.1,2.11-3.39,5.02-3.39,8.23,0,1.51,.29,2.95,.81,4.28,1.15,2.92,.42,6.16-1.4,8.72-2.02,2.85-3.07,6.42-2.68,10.26,.71,6.94,6.32,12.6,13.25,13.37,9.08,1,16.77-6.08,16.77-14.96,0-3.2-1-6.16-2.7-8.59"/></g><rect class="d" x="388.22" y="192.03" width="2.09" height="72.06"/><path class="aa" d="M477.52,204.03c.05-.88,.03-1.77-.06-2.68-.8-8.3-7.55-14.98-15.86-15.69-3.09-.26-6.03,.28-8.64,1.44-2.95,1.31-6.26,1.64-9.32,.6-1.35-.46-2.83-.65-4.36-.5-4.77,.47-8.66,4.29-9.23,9.05v.12c-.37,3.31-2.11,6.36-4.98,8.06-7.02,4.15-11.55,12.07-10.8,20.97,.91,10.76,9.69,19.4,20.46,20.15,3.07,.21,6.01-.2,8.71-1.12,5.4-1.84,11.22-1.73,16.76-.37,1.9,.46,3.91,.63,5.99,.46,8.82-.75,15.97-7.87,16.75-16.69,.36-4.12-.63-7.98-2.58-11.2-2.28-3.76-3.08-8.19-2.84-12.59"/><path class="i" d="M445.56,223.47l5.31,6.64m.23-8.69l5.28-6.61m-5.28-5.04v55.21"/><path class="ag" d="M486.81,264.08c-2.57,0-4.96,.71-7.02,1.94-2.83-6.3-9.16-10.69-16.52-10.69-6.61,0-12.4,3.55-15.56,8.84-5.81,.64-10.53,4.89-11.85,10.47h64.3c-1.43-6.05-6.87-10.56-13.36-10.56"/><rect class="v" x="985.3" y="13.43" width="52.03" height="112.43"/><rect class="ae" x="1037.32" y="13.43" width="13.21" height="112.43"/><rect class="ag" x="985.3" y="8.67" width="52.03" height="4.76"/><rect class="d" x="1037.32" y="8.67" width="13.21" height="4.76"/><rect class="d" x="994.74" y="23.74" width="33.14" height="4.85"/><rect class="d" x="994.74" y="36.17" width="33.14" height="4.85"/><rect class="d" x="994.74" y="48.59" width="33.14" height="4.85"/><rect class="d" x="994.74" y="61.01" width="33.14" height="4.85"/><rect class="d" x="994.74" y="73.43" width="33.14" height="4.85"/><rect class="d" x="994.74" y="85.85" width="33.14" height="4.85"/><rect class="d" x="994.74" y="98.27" width="33.14" height="4.85"/><rect class="v" x="994.74" y="110.69" width="33.14" height="4.85"/><polygon class="aa" points="1145.89 221.5 1109.5 221.5 1109.5 61.03 1145.89 48.29 1145.89 221.5"/><polygon class="ae" points="1172.31 214.41 1145.89 214.41 1145.89 48.29 1172.31 66.84 1172.31 214.41"/><path class="n" d="M1139.34,68v100.23m-5.35-98.58v98.58m-5.35-96.93v96.93m-5.35-95.28v95.28m-5.35-93.63v93.63m48.33-89.39v89.39m-5.35-93v93m-5.35-96.62v96.62m-5.35-100.23v100.23"/><polygon class="aa" points="957.63 241.51 918.44 241.51 918.44 90.19 957.63 69.04 957.63 241.51"/><rect class="d" x="957.63" y="69.04" width="28.45" height="172.47"/><path class="h" d="M924.72,154.71h27.54m-27.54-7.5h27.54m-27.54-7.5h27.54m-27.54-7.5h27.54m-27.54-7.5h27.54m-27.54-7.5h27.54m-27.54-7.5h27.54m-27.54-7.5h27.54"/><rect class="ag" x="962.52" y="97.23" width="19.98" height="2.96"/><rect class="ag" x="962.52" y="105.73" width="19.98" height="2.96"/><rect class="ag" x="962.52" y="114.22" width="19.98" height="2.96"/><rect class="ag" x="962.52" y="122.72" width="19.98" height="2.96"/><rect class="ag" x="962.52" y="131.22" width="19.98" height="2.96"/><rect class="ag" x="962.52" y="139.71" width="19.98" height="2.96"/><rect class="ag" x="962.52" y="148.21" width="19.98" height="2.96"/><rect class="ag" x="962.52" y="156.7" width="19.98" height="2.96"/><rect class="ag" x="962.52" y="165.2" width="19.98" height="2.96"/><rect class="ag" x="962.52" y="173.7" width="19.98" height="2.96"/><rect class="ag" x="962.52" y="182.19" width="19.98" height="2.96"/><polygon class="d" points="1103.13 85.5 1103.13 71.3 1096.33 71.3 1096.33 54.4 1074.52 54.4 1074.52 71.3 1067.71 71.3 1067.71 85.5 1061.2 85.5 1061.2 190.18 1109.64 190.18 1109.64 85.5 1103.13 85.5"/><polygon class="v" points="1092.19 85.5 1092.19 71.3 1085.38 71.3 1085.38 54.4 1063.57 54.4 1063.57 71.3 1056.76 71.3 1056.76 85.5 1050.26 85.5 1050.26 218.53 1098.7 218.53 1098.7 85.5 1092.19 85.5"/><path class="m" d="M1085.88,91.27v91.64m-7.6-91.64v91.64m-7.6-91.64v91.64m-7.6-91.64v91.64"/><rect class="c" x="970.3" y="136.09" width="56.01" height="110.17"/><polygon class="ae" points="970.3 136.09 998.26 108.13 1054.17 108.13 1026.31 136.09 970.3 136.09"/><polygon class="d" points="1054.17 108.13 1054.17 246.26 1026.31 246.26 1026.31 135.55 1054.17 108.13"/><rect class="c" x="1043.48" y="143.27" width="4.8" height="4.8"/><rect class="c" x="1043.48" y="152.88" width="4.8" height="4.8"/><rect class="c" x="1043.48" y="162.5" width="4.8" height="4.8"/><rect class="c" x="1043.48" y="172.12" width="4.8" height="4.8"/><rect class="c" x="1034.64" y="143.27" width="4.8" height="4.8"/><rect class="c" x="1034.64" y="152.88" width="4.8" height="4.8"/><rect class="c" x="1034.64" y="162.5" width="4.8" height="4.8"/><rect class="c" x="1034.64" y="172.12" width="4.8" height="4.8"/><rect class="aa" x="977.51" y="143.27" width="4.43" height="11.53"/><rect class="aa" x="990.48" y="143.27" width="4.43" height="11.53"/><rect class="aa" x="1003.46" y="143.27" width="4.43" height="11.53"/><rect class="aa" x="1016.43" y="143.27" width="4.43" height="11.53"/><rect class="aa" x="977.51" y="164.41" width="4.43" height="11.53"/><rect class="aa" x="990.48" y="164.41" width="4.43" height="11.53"/><rect class="aa" x="1003.46" y="164.41" width="4.43" height="11.53"/><rect class="aa" x="1016.43" y="164.41" width="4.43" height="11.53"/><rect class="ae" x="1051.58" y="201.59" width="54.42" height="62.65"/><polygon class="ae" points="1051.58 201.59 1078.74 174.43 1133.06 174.43 1106 201.59 1051.58 201.59"/><polygon class="aa" points="1133.06 174.43 1106 201.07 1106 264.24 1133.06 264.24 1133.06 174.43"/><rect class="c" x="1122.68" y="208.57" width="4.66" height="4.66"/><rect class="c" x="1122.68" y="217.91" width="4.66" height="4.66"/><rect class="c" x="1122.68" y="227.25" width="4.66" height="4.66"/><rect class="c" x="1122.68" y="236.6" width="4.66" height="4.66"/><rect class="c" x="1114.09" y="208.57" width="4.66" height="4.66"/><rect class="c" x="1114.09" y="217.91" width="4.66" height="4.66"/><rect class="c" x="1114.09" y="227.25" width="4.66" height="4.66"/><rect class="c" x="1114.09" y="236.6" width="4.66" height="4.66"/><rect class="d" x="1058.58" y="208.57" width="4.31" height="11.2"/><rect class="d" x="1071.19" y="208.57" width="4.31" height="11.2"/><rect class="d" x="1083.79" y="208.57" width="4.31" height="11.2"/><rect class="d" x="1096.4" y="208.57" width="4.31" height="11.2"/><rect class="d" x="1058.58" y="229.11" width="4.31" height="11.2"/><rect class="d" x="1071.19" y="229.11" width="4.31" height="11.2"/><rect class="d" x="1083.79" y="229.11" width="4.31" height="11.2"/><rect class="d" x="1096.4" y="229.11" width="4.31" height="11.2"/><rect class="c" x="1118.11" y="224.6" width="91.14" height="39.64"/><rect class="aa" x="1118.11" y="224.6" width="36.43" height="39.64"/><polygon class="d" points="1209.25 224.6 1118.11 224.6 1145.46 183.32 1181.89 183.32 1209.25 224.6"/><polygon class="c" points="1209.25 224.6 1181.89 183.32 1154.53 224.6 1209.25 224.6"/><g><path class="ae" d="M716.39,230.36c-2.81,0-5.42,.8-7.62,2.16-3.16-6.1-9.67-10.28-17.2-10.28-3.88,0-7.49,1.12-10.52,3.03-3.84-4-9.32-6.51-15.41-6.51-7.74,0-14.51,4.05-18.15,10.08-.93-.16-1.89-.25-2.87-.25-7.75,0-14.21,5.35-15.65,12.44h101.2c-1.41-6.11-7.04-10.67-13.77-10.67"/><path class="ae" d="M418.75,252.53c-2.81,0-5.42,.8-7.62,2.16-3.16-6.1-9.67-10.28-17.2-10.28-3.88,0-7.49,1.12-10.52,3.03-3.84-4-9.32-6.51-15.41-6.51-7.74,0-14.51,4.05-18.15,10.08-.93-.16-1.89-.25-2.87-.25-7.75,0-14.21,5.35-15.65,12.44h101.2c-1.41-6.11-7.04-10.67-13.77-10.67"/><path class="aa" d="M1444.98,159.6c.04-.85,.03-1.71-.05-2.59-.72-8.02-6.77-14.46-14.22-15.15-2.77-.26-5.41,.27-7.74,1.39-2.64,1.27-5.61,1.58-8.35,.58-1.21-.44-2.53-.63-3.91-.48-4.27,.45-7.76,4.15-8.27,8.74,0,.04,0,.08-.01,.12-.32,3.2-1.88,6.14-4.45,7.78-6.3,4-10.36,11.65-9.68,20.25,.81,10.39,8.68,18.73,18.34,19.45,2.75,.21,5.38-.19,7.81-1.08,4.84-1.78,10.05-1.67,15.02-.36,1.7,.45,3.51,.61,5.37,.44,7.91-.72,14.31-7.6,15.01-16.11,.33-3.97-.56-7.71-2.31-10.82-2.04-3.63-2.76-7.91-2.55-12.15"/></g><path class="i" d="M1416.68,178.37l4.43,6.41m.2-8.39l4.41-6.38m-4.41-4.86v53.3"/><path class="ag" d="M1453.31,217.58c-2.3,0-4.45,.69-6.29,1.87-2.54-6.08-8.21-10.32-14.8-10.32-5.93,0-11.11,3.42-13.94,8.54-5.21,.61-9.44,4.72-10.62,10.11h57.62c-1.28-5.84-6.15-10.19-11.97-10.19"/><polygon class="d" points="1321.43 120.55 1321.43 107.05 1315.07 107.05 1315.07 90.99 1294.69 90.99 1294.69 107.05 1288.33 107.05 1288.33 120.55 1282.25 120.55 1282.25 220.06 1327.51 220.06 1327.51 120.55 1321.43 120.55"/><polygon class="v" points="1311.2 120.55 1311.2 107.05 1304.84 107.05 1304.84 90.99 1284.46 90.99 1284.46 107.05 1278.1 107.05 1278.1 120.55 1272.02 120.55 1272.02 220.06 1317.28 220.06 1317.28 120.55 1311.2 120.55"/><path class="g" d="M1305.05,126.04v87.12m-6.93-87.12v87.12m-6.93-87.12v87.12m-6.93-87.12v87.12"/><rect class="c" x="1197.3" y="168.64" width="52.34" height="95.31"/><polygon class="ae" points="1197.3 168.64 1223.42 142.06 1275.67 142.06 1249.64 168.64 1197.3 168.64"/><polygon class="d" points="1275.67 142.06 1275.67 263.94 1249.64 263.94 1249.64 168.13 1275.67 142.06"/><rect class="c" x="1265.68" y="175.47" width="4.48" height="4.56"/><rect class="c" x="1265.68" y="184.61" width="4.48" height="4.56"/><rect class="c" x="1265.68" y="193.75" width="4.48" height="4.56"/><rect class="c" x="1265.68" y="202.89" width="4.48" height="4.56"/><rect class="c" x="1257.42" y="175.47" width="4.48" height="4.56"/><rect class="c" x="1257.42" y="184.61" width="4.48" height="4.56"/><rect class="c" x="1257.42" y="193.75" width="4.48" height="4.56"/><rect class="c" x="1257.42" y="202.89" width="4.48" height="4.56"/><rect class="aa" x="1204.04" y="175.47" width="4.14" height="10.96"/><rect class="aa" x="1216.16" y="175.47" width="4.14" height="10.96"/><rect class="aa" x="1228.28" y="175.47" width="4.14" height="10.96"/><rect class="aa" x="1240.41" y="175.47" width="4.14" height="10.96"/><rect class="aa" x="1204.04" y="195.56" width="4.14" height="10.96"/><rect class="aa" x="1216.16" y="195.56" width="4.14" height="10.96"/><rect class="aa" x="1228.28" y="195.56" width="4.14" height="10.96"/><rect class="aa" x="1240.41" y="195.56" width="4.14" height="10.96"/><polygon class="ag" points="1212.94 192.74 1197.85 208.1 1297.65 208.1 1282.56 192.74 1212.94 192.74"/><polygon class="ae" points="1212.94 192.74 1197.85 208.1 1257.76 208.1 1242.67 192.74 1212.94 192.74"/><rect class="aa" x="1197.85" y="208.1" width="99.81" height="60.95"/><rect class="d" x="1257.76" y="208.1" width="39.89" height="60.95"/><polygon class="aa" points="1227.8 198.86 1218.44 208.39 1237.17 208.39 1227.8 198.86"/><rect class="c" x="1283.9" y="223.74" width="3.57" height="8.18"/><rect class="c" x="1276.75" y="223.74" width="3.57" height="8.18"/><rect class="c" x="1269.6" y="223.74" width="3.57" height="8.18"/><rect class="c" x="1283.9" y="238.82" width="3.57" height="8.18"/><rect class="c" x="1276.75" y="238.82" width="3.57" height="8.18"/><rect class="c" x="1269.6" y="238.82" width="3.57" height="8.18"/><rect class="d" x="1205.65" y="217.34" width="5.92" height="6.02"/><rect class="d" x="1217.82" y="217.34" width="5.92" height="6.02"/><rect class="d" x="1229.98" y="217.34" width="5.92" height="6.02"/><rect class="d" x="1242.15" y="217.34" width="5.92" height="6.02"/><rect class="d" x="1205.65" y="228.92" width="5.92" height="6.02"/><rect class="d" x="1217.82" y="228.92" width="5.92" height="6.02"/><rect class="d" x="1229.98" y="228.92" width="5.92" height="6.02"/><rect class="d" x="1242.15" y="228.92" width="5.92" height="6.02"/><rect class="d" x="1205.65" y="240.49" width="5.92" height="13.76"/><rect class="d" x="1217.82" y="240.49" width="5.92" height="13.76"/><rect class="d" x="1229.98" y="240.49" width="5.92" height="13.76"/><rect class="d" x="1242.15" y="240.49" width="5.92" height="13.76"/><rect class="c" x="1296.34" y="203.14" width="107.68" height="65.76"/><rect class="d" x="1360.98" y="203.14" width="43.04" height="65.76"/><polygon class="aa" points="1296.34 203.14 1404.02 203.14 1371.7 170.26 1328.66 170.26 1296.34 203.14"/><polygon class="ae" points="1296.34 203.14 1328.66 170.26 1360.98 203.14 1299.94 203.25 1296.34 203.14"/><rect class="c" x="1389.19" y="220.01" width="3.85" height="8.83"/><rect class="c" x="1381.47" y="220.01" width="3.85" height="8.83"/><rect class="c" x="1373.75" y="220.01" width="3.85" height="8.83"/><rect class="c" x="1389.19" y="236.29" width="3.85" height="8.83"/><rect class="c" x="1381.47" y="236.29" width="3.85" height="8.83"/><rect class="c" x="1373.75" y="236.29" width="3.85" height="8.83"/><rect class="v" x="1335.79" y="220.01" width="5.23" height="8.83"/><rect class="v" x="1325.31" y="220.01" width="5.23" height="8.83"/><rect class="v" x="1314.84" y="220.01" width="5.23" height="8.83"/><rect class="v" x="1335.79" y="236.29" width="5.23" height="8.83"/><rect class="v" x="1325.31" y="236.29" width="5.23" height="8.83"/><rect class="v" x="1314.84" y="236.29" width="5.23" height="8.83"/><g><path class="c" d="M1332.38,192.74c0,2.71-2.16,4.9-4.82,4.9s-4.82-2.19-4.82-4.9,2.16-4.9,4.82-4.9,4.82,2.19,4.82,4.9"/><path class="ae" d="M1699.32,235.75c-2.81,0-5.42,.8-7.62,2.16-3.16-6.1-9.67-10.28-17.2-10.28-3.88,0-7.49,1.12-10.52,3.03-3.84-4-9.32-6.51-15.41-6.51-7.74,0-14.51,4.05-18.15,10.08-.93-.16-1.89-.25-2.87-.25-7.75,0-14.21,5.35-15.65,12.44h101.2c-1.41-6.11-7.04-10.67-13.77-10.67"/></g><path class="ag" d="M1701.76,196.02c-1.84-2.63-2.55-5.93-1.4-8.93,.49-1.29,.76-2.68,.76-4.14,0-3.21-1.3-6.11-3.39-8.23-1.23-1.24-1.2-3.21,.03-4.45,1.96-1.99,3.21-4.67,3.35-7.65,.3-6.48-5.02-12.16-11.51-12.26-6.55-.1-11.89,5.18-11.89,11.71,0,3.21,1.3,6.12,3.39,8.23,1.22,1.23,1.22,3.19,0,4.42-2.1,2.11-3.39,5.02-3.39,8.23,0,1.51,.29,2.95,.81,4.28,1.15,2.92,.42,6.16-1.4,8.72-2.02,2.85-3.07,6.42-2.67,10.26,.71,6.94,6.32,12.6,13.25,13.37,9.08,1,16.77-6.08,16.77-14.96,0-3.2-1-6.16-2.7-8.59"/><rect class="d" x="1688.36" y="183.13" width="2.09" height="72.06"/><path class="aa" d="M1777.66,180.96c.05-.88,.03-1.77-.06-2.68-.8-8.3-7.55-14.98-15.86-15.69-3.09-.26-6.03,.28-8.64,1.44-2.95,1.31-6.26,1.64-9.32,.6-1.35-.46-2.82-.65-4.36-.5-4.77,.47-8.66,4.29-9.23,9.05v.12c-.37,3.31-2.11,6.36-4.98,8.06-7.02,4.15-11.56,12.07-10.81,20.97,.91,10.76,9.69,19.4,20.46,20.15,3.07,.21,6.01-.2,8.71-1.12,5.4-1.84,11.22-1.73,16.76-.37,1.9,.46,3.91,.63,5.99,.46,8.83-.75,15.97-7.87,16.75-16.69,.36-4.12-.63-7.98-2.58-11.2-2.28-3.76-3.08-8.19-2.84-12.59"/><path class="i" d="M1745.71,200.4l5.31,6.64m.23-8.69l5.28-6.61m-5.28-5.04v55.21"/><path class="ag" d="M1786.95,241.01c-2.57,0-4.96,.71-7.02,1.94-2.83-6.3-9.16-10.69-16.52-10.69-6.61,0-12.4,3.55-15.56,8.84-5.81,.64-10.53,4.89-11.85,10.47h64.3c-1.43-6.05-6.87-10.56-13.36-10.56"/><g><path class="u" d="M907.25,264.91c-.13-.1-.28-.18-.41-.28-.56,.35-1.26,.49-1.93,.45-.86-.05-1.69-.35-2.5-.67-.12,.68,.02,1.55,.09,1.69,.09,.17,.35,.17,.54,.21,2.02,.42,4.76,.72,6.83,.73,0-.45-1.83-1.52-2.61-2.14"/><path class="ad" d="M906.84,264.64c-.6-.42-1.24-.78-1.95-1.02-.64-.21-1.37-.25-2,0-.28,.1-.42,.43-.48,.81,.81,.32,1.63,.62,2.5,.67,.67,.04,1.37-.11,1.93-.45"/><path class="u" d="M892.11,268.31c-.13-.11-.27-.19-.4-.29-.58,.32-1.28,.44-1.95,.37-.86-.09-1.67-.42-2.47-.77-.15,.68-.05,1.55,.02,1.7,.08,.18,.34,.19,.53,.23,2,.5,4.73,.92,6.79,1.01,.02-.45-1.76-1.59-2.52-2.25"/><path class="ad" d="M891.71,268.02c-.59-.45-1.21-.83-1.9-1.1-.63-.24-1.36-.3-2-.09-.28,.09-.43,.41-.51,.78,.79,.35,1.61,.69,2.47,.77,.67,.07,1.37-.05,1.95-.37"/><path class="r" d="M906.59,190.18c.2,4.85,.81,9.67,1.82,14.38,1.71-2.11,3.26-4.41,4.62-6.84,.52,.81,1.03,1.61,1.55,2.42-1.37,2.41-2.74,4.81-4.12,7.21-.43,.74-.9,1.53-1.62,1.85-.85,.37-1.83-.05-2.47-.79-.64-.74-1-1.74-1.29-2.74-.99-3.41-1.34-7.07-1.02-10.66l2.53-4.83Z"/><path class="r" d="M913.01,198.73c-.36-1.38-.12-2.96,.62-4.12,.12,.55,.1,1.14-.05,1.68,.64-1.21,1.49-2.27,2.49-3.09,.11-.09,.23-.18,.37-.18,.27,.02,.39,.4,.43,.71,.2,1.54-.07,3.16-.75,4.5-.68,1.34-1.77,2.39-3.02,2.93l-.09-2.43Z"/><path class="aa" d="M906.48,264.04c.59-14.09,2.23-41.16-1.71-56.93h-13.63c-6.23,9.25-4.91,56.93-4.76,59.85,2.35,.73,4.56,.64,5.72,.46,.4-.71,4.54-30.27,6.77-45.1,1.23,14.07,2.09,30.35,3.2,41.92,1.8,.46,3.4,.19,4.4-.19"/><path class="u" d="M905.9,177.53c-.18,1.06-.39,1.95-.51,2.4-.59,2.16,.28,1.45-1.59,3.29-1.6,1.57-3.92,.42-5.74-.07-.54-.15-1.1-.32-1.55-.7-.45-.38-.78-1.03-.68-1.67,.07-.48,.35-.86,.6-1.26,.55-.89,.95-1.91,1.16-2.98,.23-1.18,.25-2.43,.71-3.51,.58-1.34,1.81-2.19,3.07-2.49,.68-.16,1.39-.17,2.05-.33,3.27-.75,3.01,4.09,2.47,7.31"/><path class="x" d="M906.01,200.45c-.42,2.23-.69,4.52-.66,6.79,.02,1.65,.86,3.12-.78,4.39-1.02,.79-2.38,.98-3.67,1.08-2.57,.2-5.16,.15-7.72-.14-.85-.1-2.81-.67-3.48-1.2-2.13-1.69,1.26-21.85,2.04-25.07,.5-2.06,1.72-3.35,3.23-4.12,1.41-.74,3.09-1.01,4.67-1.05,1.16-.03,2.01,.2,2.67,.64,1.3,.85,1.92,2.52,2.95,4.58,.59,1.18,1.19,2.38,1.54,3.68,.91,3.29-.17,7.16-.79,10.43"/><path class="ad" d="M902.3,181.78c-.17,.94-.75,1.8-1.51,2.24-1.12,.64-2.49,.48-3.64-.08-.81-.41-1.57-1.01-2.19-1.74,1.41-.74,3.09-1.01,4.67-1.05,1.16-.03,2.01,.2,2.67,.64"/><path class="q" d="M927.29,270.58c-.13,.15-.26,.33-.2,.52,.08,.24,.4,.27,.65,.25,2.84-.24,5.61-1.26,7.93-2.92,.27-.19,.57-.46,.53-.79-.03-.24-.25-.43-.49-.5-.24-.07-.49-.05-.74-.03-1.54,.14-2.89,.17-4.28,.86-1.29,.64-2.45,1.53-3.41,2.61"/><path class="q" d="M920.25,262.88c-.86,.11-1.68,.27-2.52,.69-1.29,.64-2.45,1.53-3.41,2.61-.13,.15-.26,.33-.2,.52,.08,.24,.4,.27,.65,.25,2.84-.24,5.61-1.26,7.93-2.91,.02-.01,.03-.02,.04-.03-.82-.41-1.65-.79-2.5-1.12"/><path class="x" d="M916.42,208.45c-.21,12.31-.34,27.96-.18,41.87,.03,2.71,.5,13.72,.5,13.72,0,0,2.76,1.07,6.21,.1,.59-10.65,2.44-34.83,2-40.5,1.71,14.52,3.92,29.76,5.62,44.28,1.74,1.03,6.41,.08,6.41,.08-.14-18.56-.28-40.25-3.15-55.51l-17.41-4.04Z"/><path class="v" d="M917.82,183.18c-.53,.66-.95,1.39-1.27,2.16-.93,2.25-.92,20.38-1.09,22.81-.15,2.23,1.75,3.83,3.78,4.43,4.55,1.33,9.36,1.47,13.93,.37,.81-.2,1.41-.88,1.5-1.72,.77-7,.71-20.21,.53-22.01-.2-1.93-.81-3.88-2.08-5.35-1.54-1.78-4.02-2.66-6.24-3.19-2.19-.52-4.33-.53-6.39,.39-1.05,.47-1.95,1.21-2.67,2.1"/><path class="ad" d="M922.41,180.12c-.41,1.05,.44,2.11,1.45,2.3,1.05,.2,2.4-.23,2.81-1.29,.51-1.31,.48-4.14,.5-5.58l-4.77,4.56Z"/><path class="r" d="M917.93,174.5c.17,1.74,.72,3.49,1.76,4.69,1.4,1.6,3.59,1.98,5.38,1.11,1.78-.86,2.68-2.67,3.25-4.92,.35-1.36,.57-2.76,.54-4.17-.03-1.18-.1-2.58-1.25-3.21-.42-.23-.9-.35-1.36-.46-1.4-.32-2.85-.51-4.27-.26-1.32,.23-2.92,.96-3.61,2.18-.38,.68-.42,1.72-.48,2.48-.06,.85-.04,1.7,.05,2.55"/><path class="q" d="M925.84,172.08c.6,.45,.82,1.19,1.15,1.92,.25,.57,.44,1.1,.51,1.72,.04,.35,.02,1.94-.07,2.12,.37-.38,.74-.76,1.09-1.15,.39-.44,.51-.74,.65-1.31,.27-1.12,.52-2.26,.58-3.42,.05-1.01-.04-2.05-.37-3.01-.24-.7-.82-1.3-1.38-1.78-.89-.76-2.02-1.24-3.19-1.32-.52-.04-1.02,.07-1.53,.07-.7,0-1.23,.14-1.88,.43-.68,.31-1.5,.59-2.15,.23-.19-.11-.35-.26-.55-.36-.61-.3-1.36,.1-1.77,.65-.56,.76-.69,1.82-.33,2.69,.66,1.58,2.33,1.85,3.84,1.53,.98-.21,2.25-.3,3.17,.16,.57,.29,.96,.33,1.57,.52,.26,.08,.47,.19,.65,.32"/><path class="r" d="M926.89,174.77c.1-.23,.18-.48,.31-.69,.14-.21,.37-.36,.58-.28,.16,.05,.28,.22,.33,.41,.05,.19,.05,.39,.03,.58-.07,.79-.58,1.34-.81,1.71l-.45-1.73Z"/><path class="l" d="M919.43,174.99s.58-.31,1.36,.4m2.1,.73l4.28-2.33m-6.31,.81l2.03,.99v1.64l-2.02-.9v-1.73Zm-3.48-1.44l2.03,.99v1.64l-2.02-.9v-1.73Z"/><path class="q" d="M919.25,180.51c.41,.74,1.63,1.17,2.48,1.18,.94,.02,4.08-.39,5.27-3.04,.31-.69-.04-1.46-.02-2.18,.02-.72,.14-1.45,.35-2.14,.05-.16,.1-.33,.07-.5-.03-.17-.18-.32-.35-.3-.29,1.77-1.09,3.46-2.29,4.8-.3,.33-.65,.66-1.09,.7-.55,.05-1.03-.35-1.48-.67-.62-.43-1.33-.73-2.06-.87-.43-.09-.95-.09-1.23,.25,.01-.01-.26-.35-.29-.38,0,.92,.14,2.22,.64,3.13"/><path class="r" d="M921.28,178.54c-.48-.33-1.08-.47-1.66-.39,.02,.18,.17,.36,.33,.42,.17,.06,.37,.03,.5-.09,.11,.18,.3,.31,.51,.35,.09,.02,.19,.02,.27-.04,.08-.05,.12-.19,.05-.25"/></g><polygon class="q" points="918.23 189.57 921.32 201.77 912.39 197.39 908.16 185.19 918.23 189.57"/><g><path class="r" d="M920.54,193.66c-.2-.32-.38-.61-.52-.86-.11-.21-.24-.42-.43-.52-.19-.1-.47-.02-.52,.22-.04,.19,.07,.38,.13,.57s-.01,.48-.18,.46c-.06,0-.11-.06-.16-.1-.31-.31-.62-.62-.93-.92-.16-.16-.48-.63-.7-.62-.37,.02-.44,.72-.46,1.04-.04,.5-.02,1.01,.06,1.51,.16,.96,.54,1.84,1.13,2.53,.4,.46,.84,.89,1.37,1.12,.52,.24,1.14,.27,1.63-.05,1.58-1,.46-2.98-.41-4.39"/><path class="ag" d="M928.8,185.53c-.72,1.44-.44,3.74-.45,5.33-.02,3.42-.33,6.85-.93,10.2-2.25-1.57-4.27-3.59-5.94-5.95-.17,1.22-1.05,3.36-1.88,4.14,.89,2.05,2.34,3.78,4.04,5.62,1.7,1.84,4.18,3.03,6.15,1.6,1.38-1,2.11-2.88,2.52-4.71,.81-3.57,1.17-7.26,1.22-10.96,.03-2.46,.46-7.07-2.9-6.58-.93,.14-1.5,.63-1.84,1.31"/><path class="ad" d="M901.21,180.14l-.19,2.08s-.39-.24-.75-.21c-1.04,.08-2.46,1.01-2.89-.09-.43-1.11,.02-4.22,0-5.44l3.82,3.66Z"/><path class="r" d="M905.23,175.58c-.15,1.48-.61,2.96-1.5,3.98-1.19,1.36-3.05,1.68-4.56,.94-1.51-.73-2.27-2.26-2.75-4.17-.48-1.88-.73-4.13-.01-5.89,1.12-2.76,4.66-3.04,6.77-2,.99,.49,1.4,1.82,1.75,3,.39,1.33,.44,2.74,.3,4.13"/><path class="u" d="M897.76,179.61c.06,.54,.1,1.09,.05,1.6-.13,1.24-1.29,2.1-2.37,2.56-.91,.39-1.78,.98-2.56,1.61-1.4,1.12-1.84,2.86-3.06,4.13-.75,.78-1.83,1.26-2.91,1.2-1.08-.06-2.14-.69-2.63-1.65-.49-.97-.35-2.24,.4-3.02,.87-.91,1.33-1.46,1.24-2.78-.08-1.11-.08-2.24,.96-2.92,1.06-.69,2.48-.46,3.53-1.04,1.1-.6,1.3-2.34,1.53-3.42,.45-2.08,1.32-4.06,2.54-5.8,1.16-1.65,2.37-2.59,4.39-2.98,1.33-.26,2.72-.07,3.99,.46,1.08,.45,2.73,1.31,3.15,2.67,.09,.3,.08,.66-.1,.89-.29,.38-.9,.28-1.25,.61-.35,.32-.33,.75-.59,1.1-.66,.9-2.27,1.17-3.26,1.49-1.29,.42-2.67,1.12-3.05,2.43-.26,.89-.1,1.88,0,2.85"/><path class="r" d="M905.82,207.45c-1.25-.11-2.51-.21-3.76-.32,.55-.29,1.17-.65,1.34-1.33-1.48,.71-3.11,1.01-4.71,.85-1.55-.16-7.71-2.91-8.18-3.19,.44-2.11,1.27-4.21,1.9-6.26,.65-2.09,1.29-4.19,1.93-6.28,.36-1.18,.73-2.41,.64-3.66-.06-.89-.51-2.24-1.31-2.58-1.01-.42-1.7,.72-2.36,1.58-1.47,1.91-2.51,4.25-3.21,6.68-.97,3.38-1.33,6.96-1.68,10.5-.1,1.04-.19,2.17,.27,3.07,.59,1.15,1.86,1.51,3,1.74,3.08,.6,6.19,.99,9.3,1.39,1.36,.17,2.61,.4,3.95,0,.57-.17,1.12-.43,1.62-.79,.19-.14,1.18-1.39,1.26-1.38"/><path class="v" d="M835.36,136.76c-.07,0-.14,0-.2,.01-5.15,.35-9.75,2.86-12.9,6.61-.48,.57-.92,1.16-1.33,1.78-1.66,2.53-2.71,5.48-2.96,8.64-.03,.46-.06,.91-.06,1.36h0c-.01,1.17,.09,2.29,.28,3.4,.15,.86,.36,1.71,.63,2.53,1.43,4.38,.31,9.17-2.65,12.7-.36,.42-.7,.86-1.03,1.31-.44,.6-.86,1.22-1.25,1.86-1.75,2.84-2.98,6.04-3.56,9.46-.16,.91-.27,1.84-.32,2.79-.05,.79-.07,1.58-.04,2.38,.36,13.92,11.62,25.27,25.39,25.84,.29,.01,.58,.02,.88,.02v-80.71c-.29,0-.58,0-.88,.03"/><path class="ae" d="M862.93,189.96c-.03-.97-.12-1.93-.25-2.86-.49-3.48-1.66-6.75-3.37-9.65-.38-.65-.79-1.28-1.22-1.89-.47-.67-.97-1.31-1.5-1.94-2.94-3.43-3.97-8.11-2.54-12.4,.18-.54,.34-1.1,.47-1.66,.27-1.16,.43-2.36,.48-3.59,0-.22,.01-.42,.01-.64,0-3.54-.99-6.86-2.72-9.68-.38-.64-.81-1.25-1.27-1.84-3.18-4.04-8.01-6.73-13.46-7.05-.43-.03-.88-.03-1.32-.03v80.71s.08,0,.12,0c.4,0,.8,0,1.2-.02,14.12-.58,25.4-12.24,25.4-26.54,0-.31,0-.62-.02-.93"/><path class="d" d="M835.36,156.53l-13.11-13.14c-.48,.57-.92,1.16-1.33,1.78l15.74,15.78v-3.11l-1.31-1.31Z"/><path class="d" d="M851.01,143.81l-14.17,14.21-.18-.18v3.11l.18,.18,.71-.71,14.73-14.77c-.38-.64-.81-1.26-1.27-1.84"/><path class="d" d="M835.36,172.67l-17.45-17.49c-.01,1.16,.09,2.29,.28,3.39l17.17,17.22,1.31,1.31v-3.11l-1.31-1.31Z"/><path class="d" d="M836.84,174.16l-.18-.18v3.11l.18,.18,17.67-17.72c.27-1.16,.43-2.36,.48-3.59l-18.15,18.2Z"/><path class="d" d="M835.36,195.37l-20.22-20.27c-.44,.6-.86,1.22-1.25,1.86l21.47,21.53,1.31,1.31v-3.11l-1.31-1.31Z"/><path class="d" d="M859.31,177.45c-.38-.65-.79-1.28-1.22-1.89l-20.54,20.6-.71,.71-.18-.18v3.12l.18,.18,22.47-22.53Z"/><path class="d" d="M835.36,211.52l-25.03-25.09c-.16,.91-.27,1.84-.32,2.79l26.66,26.73v-3.11l-1.31-1.31Z"/><path class="d" d="M862.93,189.96c-.03-.97-.12-1.93-.25-2.86l-25.84,25.91-.18-.18v3.11l.18,.18,26.09-26.16Z"/><path class="d" d="M837.55,136.76v103.57h-2.2v-103.57c.74-.04,1.48-.04,2.2,0"/></g><g><path class="ad" d="M1475.38,224c-.34,.42-.85,.63-1.32,.88-.47,.24-.95,.58-1.11,1.11-.11,.38-.04,.79-.14,1.17-.11,.41-.42,.73-.59,1.12-.17,.39-.11,.96,.27,1.1,.18,.06,.37,0,.55-.04,1.04-.3,2.1-.61,2.98-1.27,.88-.65,1.55-1.73,1.44-2.86l-2.09-1.21Z"/><path class="ad" d="M1477.17,226.37c.27-.22,.53-.47,.77-.73,4.42-4.69,7.31-10.92,8.12-17.45-.81-1.24-1.65-2.45-2.69-3.55-.55-.58-1.08-1.15-1.6-1.74-.9,7.54-2.95,15.24-6.63,21.79,.68,.81,1.16,1.1,2.04,1.68"/><path class="ad" d="M1509.21,225.15c0-7.97-1.21-16.27-3.54-22.25l-4.77,5.33c2.93,4.83,5.26,10.32,5.64,16.69l2.67,.24Z"/><path class="ae" d="M1491.08,189.34l.22,7.26c3.22,3.01,6.36,7.31,9.21,12l6.3-5.7c-5.58-10.86-10.4-13.01-15.72-13.56"/></g><line class="j" x1="1508.28" y1="227.55" x2="1549.47" y2="264.07"/><g><path class="ad" d="M1506.54,224.92c.09,.54-.08,1.09-.2,1.62-.12,.54-.18,1.14,.11,1.6,.21,.33,.56,.53,.78,.86,.23,.35,.27,.81,.45,1.19,.18,.38,.64,.71,.98,.48,.16-.1,.24-.29,.32-.47,.44-1.03,.89-2.09,.96-3.21,.08-1.13-.29-2.35-1.19-2.98l-2.22,.92Z"/><path class="x" d="M1518.88,259.77c-.57,1.48-.94,3.04-1.1,4.63-.06,.58,.04,1.36,.59,1.47,.45,.09,.82-.36,1.06-.77,1.63-2.78,2.61-5.97,2.83-9.22-1.18,.74-2.21,1.73-3.03,2.88l-.34,1.02Z"/><path class="x" d="M1471.5,272.69c-1.74-.18-3.47-.35-5.2-.53-.27-.03-.56-.05-.78,.12-.34,.26-.28,.84,.01,1.16,.29,.32,.71,.44,1.12,.55,2.46,.65,4.92,1.31,7.38,1.97,.53,.14,1.07,.28,1.61,.24s1.1-.32,1.36-.82c.26-.5,.11-1.24-.39-1.47l-5.1-1.22Z"/></g><rect class="ad" x="1488.28" y="184.97" width="3.28" height="4.66"/><g><path class="ad" d="M1494.88,184.58c-1.48,2.88-5.21,4.05-7.84,2.57-2.63-1.48-3.15-5.04-1.67-7.92,1.48-2.88,4.8-4.01,7.43-2.53,2.63,1.48,3.56,5,2.08,7.88"/><path class="x" d="M1493.1,187.47c.49-.16,.89-.51,1.34-.76,2.55-1.46,2.53-6.58,1.89-7.89-.63-1.28-1.87-2.24-3.16-2.7-.72-.25-1.54-.52-2.3-.52-.8,0-1.34-.04-2.08-.44-.72-.39-1.49-.86-2.28-.69-.86,.18-1.46,1.12-1.41,2.03,.04,.91,.64,1.74,1.42,2.16,.59,.33,1.26,.44,1.91,.54,.92,.14,1.65-.03,2.27,.89,.27,.4,.7,1.86,.33,2.32,.33-.4,1.08-.2,1.18,.32,.1,.52-.52,1.01-.97,.78l-.02,3.99c.62,.22,1.26,.17,1.89-.03"/><path class="ad" d="M1483.94,181.81c-.06,.36,.17,.7,.52,.76,.34,.06,.67-.18,.72-.54,.06-.36-.17-.7-.52-.76-.34-.06-.67,.18-.72,.54"/><path class="x" d="M1489.47,179.25c.66,.12,1.1,.83,1.15,1.52,.05,.69-.19,1.37-.45,2.01,.17,.24,.53,.24,.77,.08,.24-.16,.38-.44,.49-.71,.22-.59,.32-1.25,.15-1.86-.17-.61-.66-1.14-1.26-1.23l-.85,.18Z"/><path class="ae" d="M1488.28,189.63s-8.41,4.1-8.39,22.19c0,2.03,.25,10.04,.25,10.04h19.82s1.46-28.61-8.39-32.23h-3.28Z"/><path class="d" d="M1480.18,221.78l-9.31,50.93,6.22,2.33,12.2-42.49,8.73,15.48c.45,.8,1.11,1.46,1.9,1.9l18.95,10.47,3.93-4.66-16.13-11.03-6.59-22.94h-19.9Z"/><path class="o" d="M1548.23,259.98c-.7,.6-.67,1.7-1.6,2.02-.45,.15-.93,.16-1.38,.29-.45,.14-.9,.48-.95,.96-.04,.35,.15,.7,.4,.93,.26,.23,.57,.37,.89,.5,1.05,.44,2.14,.83,3.27,.9,1.13,.07,2.32-.21,3.17-1,1.06-.98,1.4-3.08,.49-4.29-.87-1.17-3.22-1.24-4.29-.32"/><path class="o" d="M1549.33,259.7c.04-.67-.32-1.34-.89-1.65-.57-.31-1.3-.23-1.8,.19-.22,.19-.4,.52-.24,.76,.08,.13,.22,.19,.36,.23,.43,.12,.91,.08,1.32-.11,.09,.57,.22,1.14,.41,1.69l.84-1.11Z"/><path class="o" d="M1551.1,259.7c-.04-.67,.32-1.34,.89-1.65,.57-.31,1.3-.23,1.8,.19,.22,.19,.4,.52,.24,.76-.08,.13-.22,.19-.36,.23-.43,.12-.91,.08-1.32-.11-.09,.57-.22,1.14-.41,1.69l-.84-1.11Z"/><path class="o" d="M1549.64,265.41c-.05,1.34,.83,2.56,1.94,3.23,1.1,.67,2.41,.88,3.68,1.01,1.79,.18,3.59,.23,5.39,.1,.91-.07,1.87-.2,2.62-.75,.98-.73,1.4-2.03,1.63-3.27,.17-.94,.21-2.07-.5-2.66-.7-.59-1.72-.33-2.6-.1-3.33,.85-6.91,.65-10.13-.57l-2.02,3.02Z"/><path class="o" d="M1563.51,262.97c.33-.8,.3-1.76-.08-2.54-.38-.78-1.11-1.36-1.93-1.53,.96-.67,2.32-.62,3.23,.12,.91,.74,1.3,2.1,.92,3.24-.38,1.13-1.5,1.95-2.65,1.93l.52-1.22Z"/><path class="o" d="M1560.29,267.94c-.39,.64-.52,1.4,.05,2.03,.29,.31,.66,.52,.98,.77,.31,.24,.56,.31,.58,.77,.03,.78-.35,1.57-.97,2.01-.15,.11-.34,.22-.36,.41-.03,.24,.22,.42,.44,.48,1.24,.3,2.42-1.4,2.44-2.56,.03-1.31-.83-2.66-.3-3.95-.17,.41,.5,1.14,.71,1.44,.31,.44,.8,.85,1.05,1.32,.16,.3,.15,.68,.04,1-.11,.33-.31,.61-.53,.86-.11,.12-.23,.25-.26,.42-.05,.29,.22,.56,.5,.59,.28,.03,.55-.13,.78-.31,.6-.5,.96-1.28,1.03-2.07,.08-.92-.31-1.59-.69-2.38-.56-1.16-.83-2.47-.78-3.76,.01-.27,.02-.6-.19-.77-.23-.19-.56-.07-.82,.07-1.61,.87-2.97,2.24-3.86,3.9l.16-.26Z"/><path class="o" d="M1554.09,268.29c-.72-.67-1.73-.84-2.65-1.15l.1,1c.29,.2,.69,.47,.77,.54,.32,.34,.57,.74,.75,1.18,.18,.44,.24,.88,.29,1.36,.05,.52-.05,.87-.13,1.37-.04,.22,0,.48,.17,.61,.14,.11,.34,.12,.51,.08,.96-.21,1.16-1.94,1.13-2.77-.03-.83-.34-1.67-.93-2.22"/><path class="o" d="M1552.29,269.03c.06-.61-.12-1.87-.74-2.64l-1.6,.48c.14,.33,.39,1.47,.41,1.58,.09,.46,.1,.94,.03,1.41-.07,.47-.25,.88-.45,1.31-.22,.46-.48,.71-.81,1.08-.14,.17-.24,.4-.17,.61,.06,.18,.23,.29,.39,.35,.92,.36,1.98-.99,2.37-1.71,.4-.72,.49-1.64,.57-2.47"/><path class="j" d="M1549.47,265.38c1.38-.1,2.68-.98,3.26-2.2"/></g><polygon class="af" points="783.47 213.25 783.47 213.25 783.47 213.25 783.47 213.25"/><g><path class="ad" d="M781.13,209.27c-8.08,1.3-12.36-1.39-15.35-3.08-2.04-1.16-3.86-2.74-5.36-4.6l-3.87,3.89c1.84,2.17,4.06,4.03,6.56,5.44,3.59,2.03,9.41,2.5,18.01,.99v-2.64Z"/><path class="d" d="M755.82,206.48c-2.47-2.91-4.28-6.38-5.24-10.04-.25-.95-.08-1.97,.45-2.81,.55-.85,1.43-1.43,2.42-1.6,.18-.03,.36-.05,.54-.05,1.64-.03,3.09,1.07,3.52,2.68,.65,2.43,1.86,4.79,3.51,6.83l.48,.6-5.08,5.1-.61-.71Z"/><path class="q" d="M778.92,218.8l-1.34-4.06c-.41-1.25,.15-2.59,1.32-3.18l3.84-1.94,.68,1.36-3.84,1.94c-.5,.25-.74,.82-.56,1.35l1.34,4.06-1.44,.47Z"/><path class="ag" d="M753.72,243.61l-5.53-2.53c.25-.54,.47-1.07,.69-1.58,.57-1.32,1.15-2.68,2.04-4.15,1.4-2.31,2.28-4.11,2.86-5.84,1.34-4.01,1.08-8.78-3.68-11.1-3.31-1.61-7.21-.52-11.36-.77-.98-.06-1.83-2.18-2.78-2.26l.49-6.06c.92,.07,1.84,.13,2.78,.19,4.56,.28,9.27,.57,13.67,2.71,5.6,2.73,9.83,9.73,6.65,19.23-.93,2.79-2.32,5.24-3.43,7.06-.67,1.1-1.12,2.16-1.65,3.39-.24,.56-.48,1.13-.75,1.72"/><path class="af" d="M767.78,182.51l1.52,2.94c.1,.19-.01,.43-.22,.47l-1.92,.4,.62-3.82Z"/><path class="af" d="M768.27,184.07c0,3.58-1.11,6.48-3.93,6.48s-6.29-2.9-6.29-6.48,2.29-6.48,5.11-6.48c4.4,0,5.11,2.9,5.11,6.48"/><path class="af" d="M758.58,184.29c-.27-.81-.34-1.53-.28-2.21-.16,.63-.25,1.3-.25,1.99,0,1.1,.05,.42,.59,1.34l-3.15,5.04,5.42,2.42,1.7-2.65c.58,.22,1.17,.33,1.74,.33,.37,0,.7-.05,1.01-.14-3.03-.76-5.78-3.61-6.78-6.11"/><path class="q" d="M764.56,180.12c.91,.23,1.8,.48,2.74,.6,.86,.11,1.39-.83,1.39-1.62s-.37-1.48-.78-2.13c.2,.41-.18,.92-.62,1.02-.45,.1-.91-.07-1.33-.24-1.73-.68-4.77-1.89-6.49-.49-.78,.63-1.35,1.57-1.63,2.52-.43,1.45-.29,3.02,.04,4.5,.39,1.77,1.07,3.51,2.17,4.96,1.1,1.44,2.66,2.58,4.44,2.97,.75,.17,1.55,.19,2.27-.07,1.47-.53,1.73-1.41,1.58-2.82-.02-.19-.45-1.52-.2-3.2-1.07-.17-2.14,.68-3.15,1.06-.73,.28-1.27,.22-1.9-.26-.5-.38-.86-.94-1.14-1.49-.55-1.07-.94-2.21-1.17-3.39-.06-.3-.11-.62-.05-.92,.08-.48,.49-.95,.95-1.11,.82-.29,1.73-.18,2.56,.02,.11,.03,.23,.06,.34,.08"/><path class="af" d="M759.85,182.55c-.43,.15-.61,.76-.41,1.36,.2,.61,.72,.98,1.15,.84,.13-.04,.23-.13,.31-.25l-.5-1.88c-.18-.1-.38-.14-.56-.08"/><path class="q" d="M764.97,182.69l-.28-.35c.64-.51,1.58-.61,2.31-.25l-.19,.4c-.58-.28-1.34-.2-1.84,.2"/><path class="b" d="M765.49,183.69s-.05,0-.07-.02c-.06-.04-.07-.12-.03-.18,.15-.22,.4-.35,.67-.36,.26,0,.52,.12,.68,.33,.04,.06,.03,.14-.02,.18-.06,.04-.14,.03-.18-.02-.11-.14-.28-.23-.46-.23h-.01c-.18,0-.36,.1-.46,.25-.02,.03-.06,.05-.1,.05"/><path class="c" d="M768.07,186.48l-1.26,.36s.57,.6,1.25,.41v-.78Z"/><path d="M787.09,233.89c-10.4,0-18.86,8.46-18.86,18.86s8.46,18.86,18.86,18.86,18.86-8.46,18.86-18.86-8.46-18.86-18.86-18.86m0,40.12c-11.72,0-21.26-9.53-21.26-21.25s9.53-21.26,21.26-21.26,21.25,9.53,21.25,21.26-9.53,21.25-21.25,21.25"/><path class="s" d="M787.09,235.41c-9.57,0-17.35,7.78-17.35,17.35s7.78,17.35,17.35,17.35,17.35-7.78,17.35-17.35-7.78-17.35-17.35-17.35m0,36.89c-10.78,0-19.55-8.77-19.55-19.55s8.77-19.55,19.55-19.55,19.55,8.77,19.55,19.55-8.77,19.55-19.55,19.55"/><path d="M723.03,233.89c-10.4,0-18.86,8.46-18.86,18.86s8.46,18.86,18.86,18.86,18.86-8.46,18.86-18.86-8.46-18.86-18.86-18.86m0,40.12c-11.72,0-21.26-9.53-21.26-21.25s9.53-21.26,21.26-21.26,21.25,9.53,21.25,21.26-9.53,21.25-21.25,21.25"/><path class="s" d="M723.03,235.41c-9.57,0-17.35,7.78-17.35,17.35s7.78,17.35,17.35,17.35,17.35-7.78,17.35-17.35-7.78-17.35-17.35-17.35m0,36.89c-10.78,0-19.55-8.77-19.55-19.55s8.77-19.55,19.55-19.55,19.55,8.77,19.55,19.55-8.77,19.55-19.55,19.55"/></g><polygon class="q" points="755.73 255.6 734.41 216.93 736.54 215.57 756.06 251.43 774.37 225.63 776.26 227.31 755.73 255.6"/><polygon class="q" points="788.3 251.9 779.38 218.97 776.75 218.97 785.87 252.54 788.3 251.9"/><polygon class="q" points="780.01 227.73 742.3 227.73 739.63 225.21 780.01 225.21 780.01 227.73"/><polygon class="q" points="755.86 254.78 720.77 253.96 739.87 225.04 741.13 227.68 725.17 251.54 755.92 252.26 755.86 254.78"/><g><path class="q" d="M730.93,215.2h0c1.2,1.56,2.82,2.43,4.51,2.43h11.25c.7,0-.17-1.11-.68-1.73-.98-1.18-2.22-1.92-3.55-2.11l-10.54-1.27c-1.14-.17-1.81,1.63-.99,2.68"/><path class="d" d="M742.77,195.45c-4.33,3.72-6.64,7.36-8.72,12.67,1.47,.33,2.55,1.86,3.99,2.25,2.16,.59,4.18,2.55,6.69,1.73,2.32-.76,10.16-3.85,13.6-11.59,.47-1.06,1.5-1.6,2.1-2.54,.65-1.02,.9-2.15,.68-3.35-.22-1.26-.88-2.41-1.66-3.42-.58-.75-1.94-2.71-2.7-2.71-5.4,0-12.4,5.59-13.98,6.95"/><path class="ag" d="M733.66,209.89c-.01,.13-.04,.26-.05,.38-.2,1.93-.09,4.38,1.78,5.49,1.15,.68,2.55,.8,3.89,.79,1.63,0,3.25-.16,4.85-.46,.66-.13,1.33-.28,1.92-.61,1.91-1.05,1.74-3.05,2.23-4.9-4.83-.7-9.79-1.93-14.62-.7"/><path class="ag" d="M734.05,208.12c-.01,.44-.43,1.42-.38,1.77,3.97-1.01,10.64,.17,14.62,.7-3.29-1.41-10.24-3.1-14.24-2.47"/></g><polygon class="af" points="784.83 212.22 784.83 212.22 784.83 212.22 784.83 212.22"/><g><path class="af" d="M782.73,208.49c-8.17,.6-12.19-2.45-15.03-4.39-1.93-1.33-3.61-3.06-4.95-5.05l-4.19,3.54c1.65,2.32,3.7,4.36,6.07,5.99,3.4,2.33,9.16,3.29,17.86,2.54l.24-2.63Z"/><path class="d" d="M757.86,203.09c-2.21-3.11-3.72-6.73-4.36-10.46-.17-.97,.09-1.97,.69-2.76,.62-.8,1.55-1.3,2.55-1.38,.18-.01,.36-.02,.54,0,1.64,.11,2.99,1.33,3.28,2.97,.44,2.48,1.44,4.94,2.9,7.11l.43,.64-5.5,4.64-.54-.76Z"/><path class="q" d="M789.75,252.61c0,1.47-1.19,2.67-2.67,2.67s-2.67-1.19-2.67-2.67,1.19-2.66,2.67-2.66,2.67,1.19,2.67,2.66"/><path class="c" d="M723.52,255.94c-1.83,0-3.32-1.49-3.32-3.32s1.49-3.32,3.32-3.32,3.32,1.49,3.32,3.32-1.49,3.32-3.32,3.32"/><path class="q" d="M726.03,252.62c0,1.39-1.12,2.51-2.51,2.51s-2.51-1.12-2.51-2.51,1.12-2.51,2.51-2.51,2.51,1.12,2.51,2.51"/><path class="q" d="M758.24,252.75c0,2.25-1.82,4.07-4.07,4.07s-4.07-1.82-4.07-4.07,1.82-4.07,4.07-4.07,4.07,1.82,4.07,4.07"/></g><rect class="ac" x="723.28" y="247.69" width="30.92" height=".72" transform="translate(-14.95 50.01) rotate(-3.84)"/><rect class="ac" x="738.38" y="241.84" width=".72" height="30.94" transform="translate(425.63 974.19) rotate(-85.61)"/><g><path class="ac" d="M754.17,258.86v-.72c2.97,0,5.39-2.42,5.39-5.39s-2.42-5.39-5.39-5.39v-.72c3.37,0,6.1,2.74,6.1,6.1s-2.74,6.1-6.1,6.1"/><path class="ac" d="M723.32,256.49c-2.14,0-3.88-1.74-3.88-3.88s1.74-3.88,3.88-3.88c.09,0,.19,0,.28,0l-.05,.72c-.07,0-.15,0-.22,0-1.75,0-3.16,1.42-3.16,3.16s1.42,3.16,3.16,3.16v.72Z"/></g><rect class="w" x="756.72" y="255.2" width="4.76" height="1.14" transform="translate(-40.86 297.16) rotate(-21.58)"/><path class="y" d="M754.01,253.68l1.64,3.1s4.03-2.13,8.8-3.1l-.22-.66s-4.69-1.42-8.14-.5c-3.45,.92-2.08,1.16-2.08,1.16"/><polygon class="ag" points="734.05 214.24 754.21 254.5 758.63 251.57 748.28 210.59 734.05 214.24"/><g><path class="q" d="M777.14,220.39l-.39-1.2c-.09-.27,.06-.57,.33-.66l4.57-1.54c.53-.35,.76-1.03,.55-1.64l-.27-.77c-.43-1.26,.04-2.66,1.16-3.4l3.23-2.13,.84,1.27-3.23,2.13c-.54,.36-.77,1.03-.56,1.64l.27,.77c.45,1.3-.08,2.76-1.26,3.46l-.13,.06-5.11,2Z"/><path class="af" d="M783.03,211.15c.54-.05,1.44-.61,1.86-.95,.18-.15,.31-.4,.54-.44,.24-.05,.52,.13,.64,.32,.56,.87-.96,1.73-1.55,2.04,.54,.23,1.73-.06,2.08-.14,.65-.15,1.02-.51,1.49-.96,.24-.22,.46-.47,.63-.74,.38-.62,.47-1.44,.16-2.1-.2-.43-.56-.78-.98-1.02-1.14-.65-2.61-.44-3.76,.2-.77,.43-2.19,1.38-2.55,2.22-.41,.96,.5,1.67,1.44,1.58"/></g></svg>