<?xml version="1.0" encoding="utf-8"?>
<!-- Generator: Adobe Illustrator 27.8.1, SVG Export Plug-In . SVG Version: 6.00 Build 0)  -->
<svg version="1.1" xmlns="http://www.w3.org/2000/svg" xmlns:xlink="http://www.w3.org/1999/xlink" x="0px" y="0px"
	 viewBox="0 0 506.32 136.69" enable-background="new 0 0 506.32 136.69" xml:space="preserve">
<g id="Calque_1">
</g>
<g id="Calque_2">
	<rect fill="#5C72B6" width="506.32" height="136.69"/>
	<g>
		<path fill="#FFFFFF" d="M100.89,82.55l12.77,9.8c-7.3,9.92-19.15,16.3-33.63,16.3c-25.19,0-42.41-19.38-42.41-42.18
			S54.83,24.3,80.03,24.3c14.48,0,26.33,6.5,33.63,16.19l-12.77,9.92c-4.56-6.5-11.74-10.94-20.86-10.94
			c-15.05,0-25.76,11.74-25.76,27.02S64.98,93.5,80.03,93.5C89.15,93.5,96.33,89.05,100.89,82.55z"/>
		<path fill="#FFFFFF" d="M134.52,26.58h16.19v79.8h-16.19V26.58z"/>
		<path fill="#FFFFFF" d="M173.62,97.83c0-5.36,4.56-9.92,10.03-9.92c5.36,0,9.92,4.56,9.92,9.92s-4.56,9.92-9.92,9.92
			C178.18,107.75,173.62,103.19,173.62,97.83z"/>
		<path fill="#FFFFFF" d="M213.06,26.58l23.6,62.36l23.6-62.36h17.21l-30.21,79.8h-21.2l-30.21-79.8H213.06z"/>
		<path fill="#FFFFFF" d="M291.38,29.43c0-5.13,4.33-9.46,9.46-9.46s9.35,4.33,9.35,9.46s-4.22,9.46-9.35,9.46
			S291.38,34.56,291.38,29.43z M293.55,48.93h14.48v57.46h-14.48V48.93z"/>
		<path fill="#FFFFFF" d="M331.05,20.88h14.48v85.5h-14.48V20.88z"/>
		<path fill="#FFFFFF" d="M368.56,20.88h14.48v85.5h-14.48V20.88z"/>
		<path fill="#FFFFFF" d="M433.88,108.66c-20.41,0-31.92-14.25-31.92-31.01c0-16.99,10.72-31.01,29.53-31.01
			c15.96,0,26.45,10.72,26.45,25.76c0,3.19-0.46,6.27-0.91,8.21h-40.24c0.91,9.46,7.52,15.05,17.33,15.05
			c6.27,0,11.4-2.74,14.48-6.84l10.37,8.21C453.6,104.21,444.71,108.66,433.88,108.66z M417.69,69.67h25.88
			c-0.23-5.7-4.45-10.94-12.08-10.94C424.42,58.73,419.63,62.15,417.69,69.67z"/>
	</g>
</g>
</svg>
