<?xml version="1.0" encoding="utf-8"?>
<!-- Generator: Adobe Illustrator 26.2.1, SVG Export Plug-In . SVG Version: 6.00 Build 0)  -->
<svg version="1.1"
	 id="Calque_1" sodipodi:docname="bg-pol-ville.svg" xmlns:inkscape="http://www.inkscape.org/namespaces/inkscape" xmlns:sodipodi="http://sodipodi.sourceforge.net/DTD/sodipodi-0.dtd" xmlns:svg="http://www.w3.org/2000/svg"
	 xmlns="http://www.w3.org/2000/svg" xmlns:xlink="http://www.w3.org/1999/xlink" x="0px" y="0px" viewBox="0 0 1561.4 816.4"
	 style="enable-background:new 0 0 1561.4 816.4;" xml:space="preserve">
<style type="text/css">
	.st0{fill:#859CD9;}
	.st1{fill:#D34B6B;}
	.st2{fill:#5770BF;}
	.st3{fill:#293682;}
	.st4{fill:#FDCF3F;}
	.st5{fill:none;stroke:#FFFFFF;stroke-width:3;stroke-linecap:round;stroke-miterlimit:10;}
	.st6{fill:none;stroke:#FFFFFF;stroke-width:9.81;stroke-miterlimit:10;}
	.st7{fill:none;stroke:#FFFFFF;stroke-width:4;stroke-miterlimit:10;}
	.st8{fill:#FFFFFF;}
	.st9{fill:#F75900;}
	.st10{fill:#E88C73;}
	.st11{fill:#F0A694;}
	.st12{fill:#004082;}
	.st13{fill:#403D3D;}
	.st14{fill:none;stroke:#403D3D;stroke-width:0.29;stroke-linecap:round;stroke-linejoin:round;}
	.st15{fill:#F5A691;}
	.st16{fill:#472E2B;}
	.st17{fill:#A6A8AB;}
	.st18{fill:#7D8287;}
	.st19{fill:#4A4F52;}
	.st20{fill:#FFA805;}
</style>
<sodipodi:namedview  bordercolor="#666666" borderopacity="1.0" id="namedview332" inkscape:current-layer="Calque_1" inkscape:cx="780.70001" inkscape:cy="407.53523" inkscape:pagecheckerboard="0" inkscape:pageopacity="0.0" inkscape:pageshadow="2" inkscape:window-height="987" inkscape:window-maximized="1" inkscape:window-width="1680" inkscape:window-x="1672" inkscape:window-y="-8" inkscape:zoom="0.71282182" pagecolor="#ffffff" showgrid="false">
	</sodipodi:namedview>
<g id="a">
</g>
<g id="b">
	<g id="c">
		<g id="g327">
			<rect id="rect5" x="872.3" y="14.7" class="st0" width="160.1" height="345.9"/>
			<rect id="rect7" x="1032.4" y="14.7" class="st1" width="40.6" height="345.9"/>
			<rect id="rect9" x="872.3" class="st2" width="160.1" height="14.7"/>
			<rect id="rect11" x="1032.4" class="st3" width="40.6" height="14.7"/>
			<rect id="rect13" x="901.4" y="46.4" class="st3" width="102" height="14.9"/>
			<rect id="rect15" x="901.4" y="84.6" class="st3" width="102" height="14.9"/>
			<rect id="rect17" x="901.4" y="122.8" class="st3" width="102" height="14.9"/>
			<rect id="rect19" x="901.4" y="161" class="st3" width="102" height="14.9"/>
			<rect id="rect21" x="901.4" y="199.3" class="st3" width="102" height="14.9"/>
			<rect id="rect23" x="901.4" y="237.5" class="st3" width="102" height="14.9"/>
			<rect id="rect25" x="901.4" y="275.7" class="st3" width="102" height="14.9"/>
			<rect id="rect27" x="901.4" y="313.9" class="st0" width="102" height="14.9"/>
			<polygon id="polygon29" class="st4" points="1366.5,654.9 1254.5,654.9 1254.5,161.1 1366.5,121.9 			"/>
			<polygon id="polygon31" class="st1" points="1447.8,633.1 1366.5,633.1 1366.5,121.9 1447.8,179 			"/>
			<path id="path33" class="st5" d="M1346.3,182.6V491 M1329.9,187.6v303.3 M1313.4,192.7v298.2 M1297,197.8V491 M1280.5,202.8
				v288.1 M1429.2,215.9v275 M1412.8,204.8V491 M1396.3,193.7V491 M1379.9,182.5v308.4"/>
			<polygon id="polygon35" class="st4" points="787.2,716.4 666.6,716.4 666.6,250.8 787.2,185.8 			"/>
			<rect id="rect37" x="787.2" y="185.8" class="st3" width="87.5" height="530.7"/>
			<path id="path39" class="st6" d="M686,449.3h84.7 M686,426.3h84.7 M686,403.2h84.7 M686,380.1h84.7 M686,357h84.7 M686,333.9
				h84.7 M686,310.8h84.7 M686,287.7h84.7"/>
			<rect id="rect41" x="802.2" y="272.5" class="st2" width="61.5" height="9.1"/>
			<rect id="rect43" x="802.2" y="298.6" class="st2" width="61.5" height="9.1"/>
			<rect id="rect45" x="802.2" y="324.8" class="st2" width="61.5" height="9.1"/>
			<rect id="rect47" x="802.2" y="350.9" class="st2" width="61.5" height="9.1"/>
			<rect id="rect49" x="802.2" y="377.1" class="st2" width="61.5" height="9.1"/>
			<rect id="rect51" x="802.2" y="403.2" class="st2" width="61.5" height="9.1"/>
			<rect id="rect53" x="802.2" y="429.4" class="st2" width="61.5" height="9.1"/>
			<rect id="rect55" x="802.2" y="455.5" class="st2" width="61.5" height="9.1"/>
			<rect id="rect57" x="802.2" y="481.6" class="st2" width="61.5" height="9.1"/>
			<rect id="rect59" x="802.2" y="507.8" class="st2" width="61.5" height="9.1"/>
			<rect id="rect61" x="802.2" y="533.9" class="st2" width="61.5" height="9.1"/>
			<polygon id="polygon63" class="st3" points="1234.9,236.4 1234.9,192.7 1214,192.7 1214,140.7 1146.9,140.7 1146.9,192.7 
				1125.9,192.7 1125.9,236.4 1105.9,236.4 1105.9,558.5 1254.9,558.5 1254.9,236.4 			"/>
			<polygon id="polygon65" class="st0" points="1201.2,236.4 1201.2,192.7 1180.3,192.7 1180.3,140.7 1113.2,140.7 1113.2,192.7 
				1092.2,192.7 1092.2,236.4 1072.2,236.4 1072.2,645.7 1221.3,645.7 1221.3,236.4 			"/>
			<path id="path67" class="st7" d="M1181.8,254.2v282 M1158.4,254.2v282 M1135,254.2v282 M1111.7,254.2v282"/>
			<rect id="rect69" x="826.2" y="392" class="st8" width="172.3" height="339"/>
			<polygon id="polygon71" class="st1" points="826.2,392 912.2,306 1084.3,306 998.5,392 			"/>
			<polygon id="polygon73" class="st3" points="1084.3,306 1084.3,731 998.5,731 998.5,390.4 			"/>
			<rect id="rect75" x="1051.4" y="414.1" class="st8" width="14.8" height="14.8"/>
			<rect id="rect77" x="1051.4" y="443.7" class="st8" width="14.8" height="14.8"/>
			<rect id="rect79" x="1051.4" y="473.3" class="st8" width="14.8" height="14.8"/>
			<rect id="rect81" x="1051.4" y="502.9" class="st8" width="14.8" height="14.8"/>
			<rect id="rect83" x="1024.2" y="414.1" class="st8" width="14.8" height="14.8"/>
			<rect id="rect85" x="1024.2" y="443.7" class="st8" width="14.8" height="14.8"/>
			<rect id="rect87" x="1024.2" y="473.3" class="st8" width="14.8" height="14.8"/>
			<rect id="rect89" x="1024.2" y="502.9" class="st8" width="14.8" height="14.8"/>
			<rect id="rect91" x="848.4" y="414.1" class="st4" width="13.6" height="35.5"/>
			<rect id="rect93" x="888.3" y="414.1" class="st4" width="13.6" height="35.5"/>
			<rect id="rect95" x="928.2" y="414.1" class="st4" width="13.6" height="35.5"/>
			<rect id="rect97" x="968.1" y="414.1" class="st4" width="13.6" height="35.5"/>
			<rect id="rect99" x="848.4" y="479.2" class="st4" width="13.6" height="35.5"/>
			<rect id="rect101" x="888.3" y="479.2" class="st4" width="13.6" height="35.5"/>
			<rect id="rect103" x="928.2" y="479.2" class="st4" width="13.6" height="35.5"/>
			<rect id="rect105" x="968.1" y="479.2" class="st4" width="13.6" height="35.5"/>
			<rect id="rect107" x="1076.3" y="593.6" class="st1" width="167.4" height="192.8"/>
			<polygon id="polygon109" class="st1" points="1076.3,593.6 1159.9,510 1327,510 1243.7,593.6 			"/>
			<polygon id="polygon111" class="st4" points="1327,510 1243.7,592 1243.7,786.4 1327,786.4 			"/>
			<rect id="rect113" x="1295.1" y="615.1" class="st8" width="14.3" height="14.3"/>
			<rect id="rect115" x="1295.1" y="643.8" class="st8" width="14.3" height="14.3"/>
			<rect id="rect117" x="1295.1" y="672.6" class="st8" width="14.3" height="14.3"/>
			<rect id="rect119" x="1295.1" y="701.3" class="st8" width="14.3" height="14.3"/>
			<rect id="rect121" x="1268.6" y="615.1" class="st8" width="14.3" height="14.3"/>
			<rect id="rect123" x="1268.6" y="643.8" class="st8" width="14.3" height="14.3"/>
			<rect id="rect125" x="1268.6" y="672.6" class="st8" width="14.3" height="14.3"/>
			<rect id="rect127" x="1268.6" y="701.3" class="st8" width="14.3" height="14.3"/>
			<rect id="rect129" x="1097.8" y="615.1" class="st3" width="13.2" height="34.5"/>
			<rect id="rect131" x="1136.6" y="615.1" class="st3" width="13.2" height="34.5"/>
			<rect id="rect133" x="1175.4" y="615.1" class="st3" width="13.2" height="34.5"/>
			<rect id="rect135" x="1214.2" y="615.1" class="st3" width="13.2" height="34.5"/>
			<rect id="rect137" x="1097.8" y="678.3" class="st3" width="13.2" height="34.5"/>
			<rect id="rect139" x="1136.6" y="678.3" class="st3" width="13.2" height="34.5"/>
			<rect id="rect141" x="1175.4" y="678.3" class="st3" width="13.2" height="34.5"/>
			<rect id="rect143" x="1214.2" y="678.3" class="st3" width="13.2" height="34.5"/>
			<rect id="rect145" x="1281" y="664.4" class="st8" width="280.4" height="122"/>
			<rect id="rect147" x="1281" y="664.4" class="st4" width="112.1" height="122"/>
			<polygon id="polygon149" class="st3" points="1561.4,664.4 1281,664.4 1365.2,537.4 1477.2,537.4 			"/>
			<polygon id="polygon151" class="st8" points="1561.4,664.4 1477.2,537.4 1393.1,664.4 			"/>
			<g id="g195">
				<path id="path153" class="st9" d="M632.2,788.4c-0.4-0.3-0.9-0.6-1.3-0.8c-1.7,1.1-3.9,1.5-6,1.4c-2.7-0.2-5.2-1.1-7.7-2.1
					c-0.4,2.1,0,4.8,0.3,5.2c0.3,0.5,1.1,0.5,1.7,0.7c6.2,1.3,14.7,2.2,21,2.2C640.3,793.6,634.6,790.4,632.2,788.4"/>
				<path id="path155" class="st10" d="M631,787.6c-1.9-1.3-3.8-2.4-6-3.1c-2-0.7-4.2-0.8-6.2,0c-0.8,0.3-1.3,1.3-1.5,2.5
					c2.5,1,5,1.9,7.7,2.1C627.1,789.1,629.2,788.6,631,787.6"/>
				<path id="path157" class="st9" d="M585.6,798.9c-0.4-0.3-0.8-0.6-1.2-0.9c-1.8,1-4,1.3-6,1.2c-2.7-0.3-5.2-1.3-7.6-2.4
					c-0.5,2.1-0.1,4.8,0.1,5.2c0.2,0.5,1,0.6,1.6,0.7c6.2,1.5,14.5,2.8,20.9,3.1C593.4,804.4,588,800.9,585.6,798.9"/>
				<path id="path159" class="st10" d="M584.4,798c-1.8-1.4-3.7-2.6-5.9-3.4c-1.9-0.7-4.2-0.9-6.2-0.3c-0.9,0.3-1.3,1.3-1.6,2.4
					c2.5,1.1,4.9,2.1,7.6,2.4C580.4,799.3,582.6,799,584.4,798"/>
				<path id="path161" class="st11" d="M630.2,558.5c0.6,14.9,2.5,29.8,5.6,44.2c5.3-6.5,10-13.6,14.2-21c1.6,2.5,3.2,5,4.8,7.4
					c-4.2,7.4-8.5,14.8-12.7,22.2c-1.3,2.3-2.8,4.7-5,5.7c-2.6,1.1-5.6-0.2-7.6-2.4c-2-2.3-3.1-5.4-4-8.4
					c-3.1-10.5-4.1-21.8-3.1-32.8L630.2,558.5L630.2,558.5z"/>
				<path id="path163" class="st11" d="M649.9,584.8c-1.1-4.3-0.4-9.1,1.9-12.7c0.4,1.7,0.3,3.5-0.2,5.2c2-3.7,4.6-7,7.7-9.5
					c0.3-0.3,0.7-0.6,1.1-0.5c0.8,0.1,1.2,1.2,1.3,2.2c0.6,4.7-0.2,9.7-2.3,13.8s-5.4,7.4-9.3,9L649.9,584.8L649.9,584.8z"/>
				<path id="path165" class="st4" d="M629.8,785.7c1.8-43.3,6.9-126.6-5.3-175.2h-41.9C563.5,639,567.5,785.7,568,794.7
					c7.2,2.2,14,2,17.6,1.4c1.2-2.2,14-93.1,20.8-138.8c3.8,43.3,6.4,93.4,9.9,129C621.8,787.7,626.8,786.9,629.8,785.7"/>
				<path id="path167" class="st9" d="M628.1,519.6c-0.5,3.3-1.2,6-1.6,7.4c-1.8,6.7,0.9,4.5-4.9,10.1c-4.9,4.8-12.1,1.3-17.7-0.2
					c-1.7-0.5-3.4-1-4.8-2.2c-1.4-1.2-2.4-3.2-2.1-5.2c0.2-1.5,1.1-2.7,1.8-3.9c1.7-2.7,2.9-5.9,3.6-9.2c0.7-3.6,0.8-7.5,2.2-10.8
					c1.8-4.1,5.6-6.7,9.5-7.7c2.1-0.5,4.3-0.5,6.3-1C630.5,494.8,629.7,509.6,628.1,519.6"/>
				<path id="path169" class="st12" d="M628.4,590.1c-1.3,6.8-2.1,13.9-2,20.9c0.1,5.1,2.7,9.6-2.4,13.5c-3.2,2.4-7.3,3-11.3,3.3
					c-7.9,0.6-15.9,0.5-23.8-0.4c-2.6-0.3-8.6-2.1-10.7-3.7c-6.6-5.2,3.9-67.2,6.3-77.2c1.5-6.3,5.3-10.3,9.9-12.7
					c4.3-2.3,9.5-3.1,14.4-3.2c3.6-0.1,6.2,0.6,8.2,2c4,2.6,5.9,7.7,9.1,14.1c1.8,3.6,3.7,7.3,4.8,11.3
					C633.6,568.2,630.3,580.1,628.4,590.1"/>
				<path id="path171" class="st10" d="M617,532.6c-0.5,2.9-2.3,5.5-4.6,6.9c-3.5,2-7.7,1.5-11.2-0.2c-2.5-1.3-4.8-3.1-6.7-5.4
					c4.3-2.3,9.5-3.1,14.4-3.2C612.4,530.5,615,531.3,617,532.6"/>
				<path id="path173" class="st13" d="M693.9,805.9c-0.4,0.5-0.8,1-0.6,1.6c0.2,0.7,1.2,0.8,2,0.8c8.7-0.8,17.3-3.9,24.4-9
					c0.8-0.6,1.8-1.4,1.6-2.4c-0.1-0.8-0.8-1.3-1.5-1.5s-1.5-0.2-2.3-0.1c-4.7,0.4-8.9,0.5-13.2,2.7
					C700.4,799.8,696.8,802.6,693.9,805.9"/>
				<path id="path175" class="st13" d="M672.2,782.2c-2.6,0.3-5.2,0.8-7.7,2.1c-4,2-7.5,4.7-10.5,8c-0.4,0.5-0.8,1-0.6,1.6
					c0.2,0.7,1.2,0.8,2,0.8c8.7-0.7,17.3-3.9,24.4-9l0.1-0.1C677.4,784.3,674.8,783.2,672.2,782.2"/>
				<path id="path177" class="st12" d="M660.4,614.7c-0.7,37.9-1,86-0.5,128.8c0.1,8.3,1.5,42.2,1.5,42.2s8.5,3.3,19.1,0.3
					c1.8-32.8,7.5-107.2,6.2-124.6c5.3,44.7,12,91.6,17.3,136.2c5.3,3.2,19.7,0.2,19.7,0.2c-0.4-57.1-0.9-123.8-9.7-170.8
					L660.4,614.7L660.4,614.7z"/>
				<path id="path179" class="st0" d="M664.7,537c-1.6,2-2.9,4.3-3.9,6.6c-2.8,6.9-2.8,62.7-3.3,70.2c-0.5,6.9,5.4,11.8,11.6,13.6
					c14,4.1,28.8,4.5,42.9,1.1c2.5-0.6,4.3-2.7,4.6-5.3c2.4-21.5,2.2-62.2,1.6-67.7c-0.6-6-2.5-11.9-6.4-16.5
					c-4.7-5.5-12.4-8.2-19.2-9.8c-6.7-1.6-13.3-1.6-19.7,1.2C669.7,531.9,667,534.2,664.7,537"/>
				<path id="path181" class="st10" d="M678.9,527.5c-1.3,3.2,1.4,6.5,4.5,7.1c3.2,0.6,7.4-0.7,8.7-4c1.5-4,1.5-12.8,1.5-17.2
					L678.9,527.5L678.9,527.5z"/>
				<path id="path183" class="st11" d="M665.1,510.2c0.5,5.4,2.2,10.7,5.4,14.4c4.3,4.9,11.1,6.1,16.5,3.4c5.5-2.7,8.2-8.2,10-15.1
					c1.1-4.2,1.8-8.5,1.7-12.8c-0.1-3.6-0.3-7.9-3.9-9.9c-1.3-0.7-2.8-1.1-4.2-1.4c-4.3-1-8.8-1.5-13.1-0.8c-4.1,0.7-9,3-11.1,6.7
					c-1.2,2.1-1.3,5.3-1.5,7.6C664.7,505,664.8,507.6,665.1,510.2"/>
				<path id="path185" class="st13" d="M689.4,502.8c1.9,1.4,2.5,3.6,3.5,5.9c0.8,1.8,1.4,3.4,1.6,5.3c0.1,1.1,0.1,6-0.2,6.5
					c1.1-1.2,2.3-2.3,3.4-3.5c1.2-1.4,1.6-2.3,2-4c0.8-3.5,1.6-7,1.8-10.5c0.2-3.1-0.1-6.3-1.1-9.3c-0.7-2.1-2.5-4-4.2-5.5
					c-2.7-2.4-6.2-3.8-9.8-4.1c-1.6-0.1-3.2,0.2-4.7,0.2c-2.2,0-3.8,0.4-5.8,1.3c-2.1,1-4.6,1.8-6.6,0.7c-0.6-0.3-1.1-0.8-1.7-1.1
					c-1.9-0.9-4.2,0.3-5.5,2c-1.7,2.3-2.1,5.6-1,8.3c2,4.9,7.2,5.7,11.8,4.7c3-0.6,6.9-0.9,9.8,0.5c1.8,0.9,2.9,1,4.8,1.6
					C688.2,502.1,688.9,502.4,689.4,502.8"/>
				<path id="path187" class="st11" d="M692.6,511.1c0.3-0.7,0.5-1.5,1-2.1c0.4-0.6,1.1-1.1,1.8-0.9c0.5,0.2,0.9,0.7,1,1.3
					c0.2,0.6,0.1,1.2,0.1,1.8c-0.2,2.4-1.8,4.1-2.5,5.3L692.6,511.1L692.6,511.1z"/>
				<path id="path189" class="st14" d="M669.7,511.7c0,0,1.8-1,4.2,1.2 M680.4,515.2l13.2-7.2 M674.1,510.5l6.2,3v5.1l-6.2-2.8
					V510.5L674.1,510.5z M663.4,506.1l6.2,3v5.1l-6.2-2.8V506.1L663.4,506.1z"/>
				<path id="path191" class="st13" d="M669.1,528.7c1.3,2.3,5,3.6,7.6,3.6c2.9,0.1,12.6-1.2,16.2-9.4c1-2.1-0.1-4.5-0.1-6.7
					c0.1-2.2,0.4-4.5,1.1-6.6c0.2-0.5,0.3-1,0.2-1.5s-0.5-1-1.1-0.9c-0.9,5.5-3.4,10.7-7,14.8c-0.9,1-2,2-3.4,2.2
					c-1.7,0.2-3.2-1.1-4.6-2c-1.9-1.3-4.1-2.2-6.3-2.7c-1.3-0.3-2.9-0.3-3.8,0.8c0,0-0.8-1.1-0.9-1.2
					C667.2,521.9,667.6,526,669.1,528.7"/>
				<path id="path193" class="st11" d="M675.4,522.7c-1.5-1-3.3-1.5-5.1-1.2c0.1,0.5,0.5,1.1,1,1.3s1.1,0.1,1.5-0.3
					c0.3,0.6,0.9,1,1.6,1.1c0.3,0.1,0.6,0,0.8-0.1S675.6,522.9,675.4,522.7"/>
			</g>
			<polygon id="polygon197" class="st13" points="666,556.6 675.5,594.2 648,580.7 635,543.1 			"/>
			<g id="g233">
				<path id="path199" class="st11" d="M673.1,569.2c-0.6-1-1.2-1.9-1.6-2.6c-0.3-0.6-0.7-1.3-1.3-1.6s-1.4-0.1-1.6,0.7
					c-0.1,0.6,0.2,1.2,0.4,1.8s0,1.5-0.6,1.4c-0.2,0-0.3-0.2-0.5-0.3c-1-1-1.9-1.9-2.9-2.8c-0.5-0.5-1.5-1.9-2.2-1.9
					c-1.1,0-1.3,2.2-1.4,3.2c-0.1,1.5-0.1,3.1,0.2,4.6c0.5,3,1.7,5.7,3.5,7.8c1.2,1.4,2.6,2.7,4.2,3.5c1.6,0.7,3.5,0.8,5-0.1
					C679.2,579.6,675.8,573.5,673.1,569.2"/>
				<path id="path201" class="st2" d="M698.5,544.2c-2.2,4.4-1.3,11.5-1.4,16.4c0,10.5-1,21.1-2.8,31.4
					c-6.9-4.8-13.1-11.1-18.3-18.3c-0.5,3.8-3.2,10.3-5.8,12.7c2.8,6.3,7.2,11.6,12.4,17.3s12.9,9.3,18.9,4.9
					c4.2-3.1,6.5-8.9,7.8-14.5c2.5-11,3.6-22.3,3.7-33.7c0.1-7.6,1.4-21.8-8.9-20.2C701.3,540.6,699.6,542.1,698.5,544.2"/>
				<path id="path203" class="st10" d="M613.6,527.6L613,534c0,0-1.2-0.7-2.3-0.7c-3.2,0.2-7.6,3.1-8.9-0.3s0.1-13,0-16.7
					L613.6,527.6L613.6,527.6z"/>
				<path id="path205" class="st11" d="M626,513.6c-0.5,4.5-1.9,9.1-4.6,12.2c-3.7,4.2-9.4,5.2-14,2.9c-4.7-2.3-7-7-8.5-12.8
					s-2.2-12.7,0-18.1c3.5-8.5,14.3-9.4,20.8-6.1c3,1.5,4.3,5.6,5.4,9.2C626.3,504.9,626.5,509.3,626,513.6"/>
				<path id="path207" class="st9" d="M603,526c0.2,1.7,0.3,3.3,0.1,4.9c-0.4,3.8-4,6.5-7.3,7.9c-2.8,1.2-5.5,3-7.9,5
					c-4.3,3.5-5.7,8.8-9.4,12.7c-2.3,2.4-5.6,3.9-9,3.7s-6.6-2.1-8.1-5.1s-1.1-6.9,1.2-9.3c2.7-2.8,4.1-4.5,3.8-8.5
					c-0.2-3.4-0.3-6.9,3-9c3.2-2.1,7.6-1.4,10.9-3.2c3.4-1.8,4-7.2,4.7-10.5c1.4-6.4,4.1-12.5,7.8-17.9c3.6-5.1,7.3-8,13.5-9.2
					c4.1-0.8,8.4-0.2,12.3,1.4c3.3,1.4,8.4,4,9.7,8.2c0.3,0.9,0.2,2-0.3,2.7c-0.9,1.2-2.8,0.9-3.8,1.9c-1.1,1-1,2.3-1.8,3.4
					c-2,2.8-7,3.6-10,4.6c-4,1.3-8.2,3.5-9.4,7.5C602.2,519.9,602.7,523,603,526"/>
				<path id="path209" class="st11" d="M627.8,611.6c-3.9-0.3-7.7-0.7-11.6-1c1.7-0.9,3.6-2,4.1-4.1c-4.6,2.2-9.6,3.1-14.5,2.6
					c-4.8-0.5-23.7-9-25.2-9.8c1.4-6.5,3.9-13,5.9-19.3c2-6.4,4-12.9,6-19.3c1.1-3.6,2.2-7.4,2-11.2c-0.2-2.8-1.6-6.9-4-8
					c-3.1-1.3-5.2,2.2-7.3,4.9c-4.5,5.9-7.7,13.1-9.9,20.5c-3,10.4-4.1,21.4-5.2,32.3c-0.3,3.2-0.6,6.7,0.8,9.4
					c1.8,3.5,5.7,4.7,9.2,5.3c9.5,1.9,19.1,3.1,28.6,4.3c4.2,0.5,8,1.2,12.2,0c1.7-0.5,3.5-1.3,5-2.4
					C624.5,615.4,627.6,611.6,627.8,611.6"/>
				<path id="path211" class="st0" d="M411,394.1c-0.2,0-0.4,0-0.6,0c-15.8,1.1-30,8.8-39.7,20.4c-1.5,1.7-2.8,3.6-4.1,5.5
					c-5.1,7.8-8.3,16.9-9.1,26.6c-0.1,1.4-0.2,2.8-0.2,4.2l0,0c0,3.6,0.3,7,0.9,10.4c0.5,2.7,1.1,5.2,1.9,7.8
					c4.4,13.5,0.9,28.2-8.1,39.1c-1.1,1.3-2.1,2.6-3.2,4c-1.4,1.8-2.6,3.8-3.9,5.7c-5.4,8.8-9.2,18.6-10.9,29.1
					c-0.5,2.8-0.8,5.7-1,8.6c-0.1,2.4-0.2,4.9-0.1,7.3c1.1,42.8,35.8,77.8,78.1,79.5c0.9,0,1.8,0.1,2.7,0.1V394
					C412.8,394,411.9,394.1,411,394.1"/>
				<path id="path213" class="st1" d="M495.9,557.8c-0.1-3-0.4-5.9-0.8-8.8c-1.5-10.7-5.1-20.8-10.4-29.7c-1.2-2-2.4-3.9-3.8-5.8
					c-1.5-2.1-3-4-4.6-6c-9-10.6-12.2-25-7.8-38.2c0.6-1.7,1-3.4,1.4-5.1c0.8-3.6,1.3-7.3,1.5-11.1c0-0.7,0-1.3,0-2
					c0-10.9-3.1-21.1-8.4-29.8c-1.2-2-2.5-3.9-3.9-5.7c-9.8-12.4-24.6-20.7-41.4-21.7c-1.3-0.1-2.7-0.1-4-0.1v248.4
					c0.1,0,0.2,0,0.4,0c1.2,0,2.5,0,3.7-0.1c43.4-1.8,78.1-37.7,78.1-81.7C495.9,559.7,495.9,558.8,495.9,557.8"/>
				<path id="path215" class="st3" d="M411,455l-40.3-40.4c-1.5,1.7-2.8,3.6-4.1,5.5l48.4,48.6V459L411,455z"/>
				<path id="path217" class="st3" d="M459.2,415.8l-43.6,43.7L415,459v9.6l0.5,0.5l2.2-2.2l45.3-45.5
					C461.9,419.5,460.6,417.6,459.2,415.8"/>
				<path id="path219" class="st3" d="M411,504.6l-53.7-53.8c0,3.6,0.3,7,0.9,10.4l52.8,53l4,4v-9.6L411,504.6L411,504.6z"/>
				<path id="path221" class="st3" d="M415.6,509.2l-0.5-0.5v9.6l0.5,0.5l54.4-54.5c0.8-3.6,1.3-7.3,1.5-11.1L415.6,509.2
					L415.6,509.2z"/>
				<path id="path223" class="st3" d="M411,574.5l-62.2-62.4c-1.4,1.8-2.6,3.8-3.9,5.7L411,584l4,4v-9.6L411,574.5L411,574.5z"/>
				<path id="path225" class="st3" d="M484.7,519.3c-1.2-2-2.4-3.9-3.8-5.8l-63.2,63.4l-2.2,2.2l-0.5-0.5v9.6l0.5,0.5L484.7,519.3z"
					/>
				<path id="path227" class="st3" d="M411,624.1l-77-77.2c-0.5,2.8-0.8,5.7-1,8.6l82,82.2v-9.6L411,624.1L411,624.1z"/>
				<path id="path229" class="st3" d="M495.9,557.8c-0.1-3-0.4-5.9-0.8-8.8l-79.5,79.7l-0.5-0.5v9.6l0.5,0.5L495.9,557.8
					L495.9,557.8z"/>
				<path id="path231" class="st3" d="M417.8,394.1v318.7H411V394.1C413.3,394,415.6,394,417.8,394.1"/>
			</g>
			<path id="polygon235" class="st15" d="M251.4,629.5L251.4,629.5L251.4,629.5z"/>
			<g id="g269">
				<path id="path237" class="st10" d="M244.2,617.2c-24.9,4-38-4.3-47.2-9.5c-6.3-3.5-11.9-8.4-16.5-14.2l-11.9,12
					c5.7,6.7,12.5,12.4,20.2,16.7c11,6.2,28.9,7.7,55.4,3L244.2,617.2L244.2,617.2z"/>
				<path id="path239" class="st3" d="M166.3,608.6c-7.6-8.9-13.2-19.6-16.1-30.9c-0.8-2.9-0.3-6.1,1.4-8.6c1.7-2.6,4.4-4.4,7.4-4.9
					c0.6-0.1,1.1-0.1,1.7-0.2c5.1-0.1,9.5,3.3,10.8,8.2c2,7.5,5.7,14.8,10.8,21l1.5,1.8l-15.6,15.7L166.3,608.6L166.3,608.6z"/>
				<path id="path241" class="st13" d="M237.4,646.5l-4.1-12.5c-1.3-3.8,0.4-8,4.1-9.8l11.8-6l2.1,4.2l-11.8,6
					c-1.5,0.8-2.3,2.5-1.7,4.2l4.1,12.5L237.4,646.5L237.4,646.5z"/>
				<path id="path243" class="st2" d="M159.8,722.9l-17-7.8c0.8-1.7,1.5-3.3,2.1-4.9c1.7-4.1,3.5-8.2,6.3-12.8
					c4.3-7.1,7-12.6,8.8-18c4.1-12.3,3.3-27-11.3-34.1c-10.2-5-22.2-1.6-34.9-2.4c-3-0.2-5.6-6.7-8.6-7l1.5-18.6
					c2.8,0.2,5.7,0.4,8.6,0.6c14,0.9,28.5,1.8,42,8.3c17.2,8.4,30.2,29.9,20.4,59.2c-2.9,8.6-7.1,16.1-10.5,21.7
					c-2.1,3.4-3.5,6.7-5.1,10.4C161.4,719.3,160.6,721.1,159.8,722.9"/>
				<path id="path245" class="st15" d="M203.1,534.9l4.7,9c0.3,0.6,0,1.3-0.7,1.5l-5.9,1.2L203.1,534.9L203.1,534.9z"/>
				<path id="path247" class="st15" d="M204.6,539.7c0,11-3.4,19.9-12.1,19.9s-19.4-8.9-19.4-19.9s7-19.9,15.7-19.9
					C202.4,519.8,204.6,528.7,204.6,539.7"/>
				<path id="path249" class="st15" d="M174.8,540.4c-0.8-2.5-1-4.7-0.9-6.8c-0.5,1.9-0.8,4-0.8,6.1c0,3.4,0.2,1.3,1.8,4.1
					l-9.7,15.5l16.7,7.5l5.2-8.2c1.8,0.7,3.6,1,5.3,1c1.1,0,2.2-0.2,3.1-0.4C186.3,556.8,177.8,548.1,174.8,540.4"/>
				<path id="path251" class="st13" d="M193.2,527.5c2.8,0.7,5.5,1.5,8.4,1.8c2.6,0.3,4.3-2.5,4.3-5s-1.1-4.5-2.4-6.5
					c0.6,1.3-0.5,2.8-1.9,3.1s-2.8-0.2-4.1-0.7c-5.3-2.1-14.7-5.8-20-1.5c-2.4,2-4.1,4.8-5,7.8c-1.3,4.5-0.9,9.3,0.1,13.8
					c1.2,5.5,3.3,10.8,6.7,15.2c3.4,4.5,8.2,7.9,13.6,9.1c2.3,0.5,4.8,0.6,7-0.2c4.5-1.6,5.3-4.3,4.9-8.7c-0.1-0.6-1.4-4.7-0.6-9.8
					c-3.3-0.5-6.6,2.1-9.7,3.3c-2.2,0.8-3.9,0.7-5.9-0.8c-1.6-1.2-2.6-2.9-3.5-4.6c-1.7-3.3-2.9-6.8-3.6-10.4
					c-0.2-0.9-0.3-1.9-0.2-2.8c0.3-1.5,1.5-2.9,2.9-3.4c2.5-0.9,5.3-0.6,7.9,0.1C192.5,527.4,192.8,527.4,193.2,527.5"/>
				<path id="path253" class="st15" d="M178.7,535c-1.3,0.5-1.9,2.3-1.2,4.2s2.2,3,3.5,2.6c0.4-0.1,0.7-0.4,1-0.8l-1.5-5.8
					C179.8,534.9,179.2,534.8,178.7,535"/>
				<path id="path255" class="st13" d="M194.4,535.5l-0.9-1.1c2-1.6,4.9-1.9,7.1-0.8l-0.6,1.2C198.3,534,196,534.2,194.4,535.5"/>
				<path id="path257" class="st16" d="M196,538.5c-0.1,0-0.1,0-0.2-0.1c-0.2-0.1-0.2-0.4-0.1-0.5c0.5-0.7,1.2-1.1,2.1-1.1
					c0.8,0,1.6,0.4,2.1,1c0.1,0.2,0.1,0.4-0.1,0.5c-0.2,0.1-0.4,0.1-0.5-0.1c-0.3-0.4-0.9-0.7-1.4-0.7l0,0c-0.6,0-1.1,0.3-1.4,0.8
					C196.3,538.5,196.2,538.5,196,538.5"/>
				<path id="path259" class="st8" d="M204,547.1l-3.9,1.1c0,0,1.8,1.9,3.8,1.3L204,547.1z"/>
				<path id="path261" d="M262.5,693c-32,0-58,26-58,58s26,58,58,58s58-26,58-58S294.5,693,262.5,693 M262.5,816.4
					c-36.1,0-65.4-29.3-65.4-65.4s29.3-65.4,65.4-65.4s65.4,29.3,65.4,65.4S298.5,816.4,262.5,816.4"/>
				<path id="path263" class="st17" d="M262.5,697.6c-29.4,0-53.4,23.9-53.4,53.4s23.9,53.4,53.4,53.4s53.4-23.9,53.4-53.4
					S291.9,697.6,262.5,697.6 M262.5,811.2c-33.2,0-60.1-27-60.1-60.1s27-60.1,60.1-60.1s60.1,27,60.1,60.1S295.6,811.2,262.5,811.2
					"/>
				<path id="path265" d="M65.4,693c-32,0-58,26-58,58s26,58,58,58s58-26,58-58S97.4,693,65.4,693 M65.4,816.4
					C29.3,816.4,0,787.1,0,751s29.3-65.4,65.4-65.4s65.4,29.3,65.4,65.4S101.5,816.4,65.4,816.4"/>
				<path id="path267" class="st17" d="M65.4,697.6C36,697.6,12,721.6,12,751s23.9,53.4,53.4,53.4s53.4-23.9,53.4-53.4
					S94.8,697.6,65.4,697.6 M65.4,811.2c-33.2,0-60.1-27-60.1-60.1s27-60.1,60.1-60.1s60.1,27,60.1,60.1S98.6,811.2,65.4,811.2"/>
			</g>
			<polygon id="polygon271" class="st13" points="166,759.8 100.4,640.8 107,636.6 167,747 223.4,667.6 229.2,672.7 			"/>
			<polygon id="polygon273" class="st13" points="266.2,748.4 238.8,647.1 230.7,647.1 258.7,750.3 			"/>
			<polygon id="polygon275" class="st13" points="240.7,674 124.7,674 116.5,666.3 240.7,666.3 			"/>
			<polygon id="polygon277" class="st13" points="166.4,757.2 58.5,754.7 117.2,665.7 121.1,673.9 72,747.3 166.6,749.5 			"/>
			<g id="g287">
				<path id="path279" class="st13" d="M89.7,635.5L89.7,635.5c3.7,4.8,8.7,7.5,13.9,7.5h34.6c2.1,0-0.5-3.4-2.1-5.3
					c-3-3.6-6.8-5.9-10.9-6.5l-32.4-3.9C89.2,626.7,87.2,632.2,89.7,635.5"/>
				<path id="path281" class="st3" d="M126.1,574.7c-13.3,11.4-20.4,22.7-26.8,39c4.5,1,7.8,5.7,12.3,6.9c6.7,1.8,12.8,7.8,20.6,5.3
					c7.1-2.3,31.3-11.8,41.8-35.7c1.4-3.2,4.6-4.9,6.4-7.8c2-3.2,2.8-6.6,2.1-10.3c-0.7-3.9-2.7-7.4-5.1-10.5
					c-1.8-2.3-6-8.3-8.3-8.3C152.5,553.3,131,570.5,126.1,574.7"/>
				<path id="path283" class="st2" d="M98.1,619.1c0,0.4-0.1,0.8-0.2,1.2c-0.6,5.9-0.3,13.5,5.5,16.9c3.5,2.1,7.8,2.5,12,2.4
					c5,0,10-0.5,14.9-1.4c2-0.4,4.1-0.9,5.9-1.9c5.9-3.2,5.3-9.4,6.9-15.1C128.2,619.1,113,615.4,98.1,619.1"/>
				<path id="path285" class="st2" d="M99.3,613.7c0,1.3-1.3,4.4-1.2,5.5c12.2-3.1,32.8,0.5,45,2.2
					C133,616.9,111.6,611.8,99.3,613.7"/>
			</g>
			<path id="polygon289" class="st15" d="M255.5,626.3L255.5,626.3L255.5,626.3z"/>
			<g id="g303">
				<path id="path291" class="st15" d="M249.1,614.8c-25.1,1.8-37.5-7.5-46.2-13.5c-5.9-4.1-11.1-9.4-15.2-15.5l-12.9,10.9
					c5.1,7.1,11.4,13.4,18.7,18.4c10.4,7.2,28.2,10.1,54.9,7.8L249.1,614.8L249.1,614.8z"/>
				<path id="path293" class="st3" d="M172.6,598.2c-6.8-9.6-11.4-20.7-13.4-32.2c-0.5-3,0.3-6.1,2.1-8.5c1.9-2.5,4.8-4,7.8-4.2
					c0.6,0,1.1,0,1.7,0c5,0.3,9.2,4.1,10.1,9.1c1.4,7.6,4.4,15.2,8.9,21.9l1.3,2l-16.9,14.3L172.6,598.2L172.6,598.2z"/>
				<path id="path295" class="st13" d="M270.7,750.6c0,4.5-3.7,8.2-8.2,8.2s-8.2-3.7-8.2-8.2s3.7-8.2,8.2-8.2S270.7,746,270.7,750.6
					"/>
				<path id="path297" class="st8" d="M66.9,760.8c-5.6,0-10.2-4.6-10.2-10.2s4.6-10.2,10.2-10.2s10.2,4.6,10.2,10.2
					S72.5,760.8,66.9,760.8"/>
				<path id="path299" class="st13" d="M74.6,750.6c0,4.3-3.5,7.7-7.7,7.7s-7.7-3.5-7.7-7.7s3.5-7.7,7.7-7.7S74.6,746.3,74.6,750.6"
					/>
				<path id="path301" class="st13" d="M173.7,751c0,6.9-5.6,12.5-12.5,12.5s-12.5-5.6-12.5-12.5s5.6-12.5,12.5-12.5
					S173.7,744.1,173.7,751"/>
			</g>
			
				<rect id="rect305" x="66.2" y="735.4" transform="matrix(0.9978 -6.696747e-02 6.696747e-02 0.9978 -49.0684 9.2711)" class="st18" width="95.1" height="2.2"/>
			
				<rect id="rect307" x="112.6" y="717.5" transform="matrix(7.654241e-02 -0.9971 0.9971 7.654241e-02 -657.7989 819.8965)" class="st18" width="2.2" height="95.2"/>
			<g id="g313">
				<path id="path309" class="st18" d="M161.2,769.8v-2.2c9.1,0,16.6-7.4,16.6-16.6s-7.4-16.6-16.6-16.6v-2.2
					c10.4,0,18.8,8.4,18.8,18.8S171.6,769.8,161.2,769.8"/>
				<path id="path311" class="st18" d="M66.3,762.5c-6.6,0-11.9-5.4-11.9-11.9s5.4-11.9,11.9-11.9c0.3,0,0.6,0,0.9,0l-0.2,2.2
					c-0.2,0-0.5,0-0.7,0c-5.4,0-9.7,4.4-9.7,9.7s4.4,9.7,9.7,9.7L66.3,762.5L66.3,762.5z"/>
			</g>
			
				<rect id="rect315" x="169" y="758.6" transform="matrix(0.9299 -0.3678 0.3678 0.9299 -267.3041 118.1477)" class="st19" width="14.6" height="3.5"/>
			<path id="path317" class="st20" d="M160.7,753.9l5.1,9.5c0,0,12.4-6.6,27.1-9.5l-0.7-2c0,0-14.4-4.4-25-1.5
				S160.7,753.9,160.7,753.9"/>
			<polygon id="polygon319" class="st2" points="99.3,632.5 161.3,756.4 174.9,747.4 143.1,621.3 			"/>
			<g id="g325">
				<path id="path321" class="st13" d="M231.9,651.5l-1.2-3.7c-0.3-0.8,0.2-1.7,1-2l14.1-4.7c1.6-1.1,2.4-3.2,1.7-5l-0.8-2.4
					c-1.3-3.9,0.1-8.2,3.6-10.5l9.9-6.6l2.6,3.9l-9.9,6.6c-1.6,1.1-2.4,3.2-1.7,5l0.8,2.4c1.4,4-0.2,8.5-3.9,10.7l-0.4,0.2
					L231.9,651.5L231.9,651.5z"/>
				<path id="path323" class="st15" d="M250,623c1.7-0.2,4.4-1.9,5.7-2.9c0.6-0.5,0.9-1.2,1.7-1.4c0.7-0.1,1.6,0.4,2,1
					c1.7,2.7-2.9,5.3-4.8,6.3c1.7,0.7,5.3-0.2,6.4-0.4c2-0.5,3.1-1.6,4.6-2.9c0.7-0.7,1.4-1.4,1.9-2.3c1.2-1.9,1.5-4.4,0.5-6.5
					c-0.6-1.3-1.7-2.4-3-3.1c-3.5-2-8-1.4-11.6,0.6c-2.4,1.3-6.7,4.2-7.8,6.8C244.3,621.1,247.1,623.2,250,623"/>
			</g>
		</g>
	</g>
</g>
</svg>
